<svg width="117" height="31" viewBox="0 0 117 31" fill="none" xmlns="http://www.w3.org/2000/svg">
<g id="logo 2" clip-path="url(#clip0_22202_69824)">
<g id="Group">
<path id="Vector" d="M114.462 0H108.884C108.554 0 108.206 0.0193871 107.876 0.0581614L50.1125 6.04878C49.2795 6.12633 48.834 6.53346 48.834 7.34772V7.9681C48.834 8.66604 49.4151 9.24765 50.1125 9.24765H114.462C115.857 9.24765 117 8.10381 117 6.70794V2.53971C117 1.14384 115.857 0 114.462 0Z" fill="url(#paint0_linear_22202_69824)"/>
<g id="Group_2">
<path id="Vector_2" d="M12.2424 30.7095H10.7702C10.4215 30.7095 10.131 30.4187 10.131 30.0697V29.3718C8.60066 30.2636 6.99288 30.9421 5.21076 30.9421C2.49884 30.9421 0 29.7595 0 25.7658V25.378C0 21.9271 2.01457 20.2017 7.7096 20.2017H10.0728V18.9221C10.0728 16.2273 9.14305 15.2967 6.64421 15.2967C4.57152 15.2967 3.02185 15.4324 1.74338 15.5488C1.68526 15.5488 1.64652 15.5488 1.58841 15.5488C1.29785 15.5488 1.00728 15.4518 1.00728 15.0447V13.9202C1.00728 13.5713 1.23974 13.3774 1.68526 13.3192C3.00248 13.0866 4.47467 12.9121 6.64421 12.9121C11.0995 12.9121 12.8816 15.161 12.8816 18.9221V30.0891C12.8816 30.4381 12.6104 30.7095 12.2424 30.7095ZM10.0728 22.1985H7.7096C3.83543 22.1985 2.80877 23.071 2.80877 25.3393V25.727C2.80877 28.0341 3.89354 28.6351 5.75315 28.6351C7.22533 28.6351 8.54255 28.1892 10.0728 27.3555V22.1985Z" fill="#001BC1"/>
<path id="Vector_3" d="M28.2426 30.7095H18.5766C17.2012 30.7095 16.6201 29.837 16.6201 28.9452V28.3442C16.6201 27.4524 16.8138 26.9677 17.3562 26.2698L25.6082 15.9946C25.6663 15.8977 25.7438 15.8008 25.7438 15.7038C25.7438 15.5681 25.6857 15.4712 25.4145 15.4712H17.6468C17.2981 15.4712 17.0075 15.1804 17.0075 14.8314V13.7457C17.0075 13.3968 17.2981 13.106 17.6468 13.106H27.0416C28.3589 13.106 28.8238 13.707 28.8238 14.6763V15.4518C28.8238 16.1303 28.5913 16.5956 28.0877 17.216L19.6807 27.7432C19.5451 27.8789 19.5257 27.9953 19.5257 28.0922C19.5257 28.2473 19.5645 28.3442 19.7776 28.3442H28.2233C28.5719 28.3442 28.8625 28.635 28.8625 28.984V30.0697C28.8819 30.438 28.5913 30.7095 28.2426 30.7095Z" fill="#001BC1"/>
<path id="Vector_4" d="M51.0426 30.7094H49.5123C49.1636 30.7094 48.873 30.4185 48.873 30.0696V13.0089C48.873 12.6599 49.1636 12.3691 49.5123 12.3691H51.0426C51.3913 12.3691 51.6818 12.6599 51.6818 13.0089V30.0696C51.6818 30.4379 51.3913 30.7094 51.0426 30.7094Z" fill="#001BC1"/>
<path id="Vector_5" d="M72.2533 13.1059L68.2241 27.6462C67.4299 30.4961 65.4735 31.0002 63.5945 31.0002C61.7155 31.0002 59.7978 30.4961 58.9842 27.6462L54.9938 13.1059C54.9551 13.0477 54.9551 12.9701 54.9551 12.912C54.9551 12.5824 55.1875 12.3691 55.4587 12.3691H59.6816C60.0109 12.3691 60.2627 12.6599 60.3595 13.0477L63.1102 25.5912C63.2071 26.0758 63.362 26.2697 63.5945 26.2697C63.8269 26.2697 64.0013 26.0758 64.0981 25.5912L66.8488 13.0477C66.9456 12.6599 67.1975 12.3691 67.5268 12.3691H71.7496C72.0402 12.3691 72.292 12.6018 72.292 12.912C72.292 12.9895 72.292 13.0477 72.2533 13.1059Z" fill="#001BC1"/>
<path id="Vector_6" d="M88.3702 30.7094H84.7866C84.4379 30.7094 84.1474 30.4186 84.1474 30.0697V29.5656C82.9076 30.4574 81.6292 31.0002 79.6921 31.0002C76.9027 31.0002 74.2295 29.6625 74.2295 25.4943V25.2035C74.2295 21.4618 76.6315 19.7945 82.0941 19.7945H83.8181V18.6506C83.8181 16.8283 82.927 16.4405 81.4161 16.4405C79.3628 16.4405 77.0964 16.5762 76.1085 16.6732H75.9535C75.6242 16.6732 75.3724 16.5181 75.3724 16.0915V13.4937C75.3724 13.1447 75.6048 12.8927 75.9729 12.7957C77.1545 12.5049 79.4015 12.1172 81.5129 12.1172C86.1232 12.1172 88.9901 13.9784 88.9901 18.6506V30.0697C89.0095 30.438 88.7189 30.7094 88.3702 30.7094ZM83.9343 22.877H82.1134C79.8664 22.877 79.3047 23.6525 79.3047 25.2229V25.5137C79.3047 26.8514 79.9826 27.1228 81.3192 27.1228C82.2878 27.1228 83.1788 26.7932 83.9343 26.4249V22.877Z" fill="#001BC1"/>
<path id="Vector_7" d="M116.322 30.7093H112.448C112.099 30.7093 111.809 30.3797 111.809 30.0307V19.1352C111.809 17.0801 111.324 16.4791 109.852 16.4791C109.31 16.4791 108.341 16.6149 107.392 17.0608C107.45 17.7005 107.489 18.4372 107.489 19.1352V30.0501C107.489 30.3991 107.198 30.7287 106.85 30.7287H102.976C102.627 30.7287 102.298 30.3991 102.298 30.0501V19.1352C102.298 17.0801 101.91 16.4791 100.438 16.4791C99.8374 16.4791 99.0045 16.8087 98.0166 17.3128V30.0501C98.0166 30.3991 97.726 30.7287 97.3773 30.7287H93.5032C93.1545 30.7287 92.8252 30.3991 92.8252 30.0501V13.0089C92.8252 12.6599 93.1158 12.3691 93.4644 12.3691H97.1062C97.4548 12.3691 97.7454 12.6599 97.7454 13.0089V13.7068C99.082 12.815 100.632 12.0977 102.472 12.0977C104.177 12.0977 105.358 12.5823 106.249 13.668C108.109 12.6211 109.387 12.0977 111.46 12.0977C115.683 12.0977 116.961 14.9088 116.961 19.1158V30.0501C117 30.3991 116.671 30.7093 116.322 30.7093Z" fill="#001BC1"/>
<path id="Vector_8" d="M35.4484 22.431V30.0889C35.4484 30.4379 35.1579 30.7287 34.8092 30.7287H33.2789C32.9302 30.7287 32.6396 30.4379 32.6396 30.0889V7.28968C32.6396 6.94071 32.9302 6.6499 33.2789 6.6499H34.8092C35.1579 6.6499 35.4484 6.94071 35.4484 7.28968V20.6086V22.431Z" fill="#001BC1"/>
<path id="Vector_9" d="M45.5986 29.8757L38.7219 21.5392L45.5986 13.2028C45.8698 12.8732 45.6373 12.3691 45.2112 12.3691H43.3709C43.061 12.3691 42.7704 12.5049 42.5767 12.7569L35.332 21.5586L42.5767 30.3604C42.7704 30.593 43.061 30.7481 43.3709 30.7481H45.2112C45.6373 30.7094 45.8698 30.2247 45.5986 29.8757Z" fill="#001BC1"/>
</g>
</g>
</g>
<defs>
<linearGradient id="paint0_linear_22202_69824" x1="48.834" y1="4.62383" x2="117" y2="4.62383" gradientUnits="userSpaceOnUse">
<stop stop-color="#0000DD"/>
<stop offset="0.1067" stop-color="#010BDF"/>
<stop offset="0.2943" stop-color="#0428E4"/>
<stop offset="0.5408" stop-color="#0958EC"/>
<stop offset="0.8335" stop-color="#0F9AF8"/>
<stop offset="1" stop-color="#13C2FF"/>
</linearGradient>
<clipPath id="clip0_22202_69824">
<rect width="117" height="31" fill="white"/>
</clipPath>
</defs>
</svg>
