<svg width="194" height="61" viewBox="0 0 194 61" fill="none" xmlns="http://www.w3.org/2000/svg">
<g id="Frame 34405">
<g id="Vector">
<path fill-rule="evenodd" clip-rule="evenodd" d="M168.819 9C180.425 9 189.837 17.9518 189.837 29C189.837 40.0432 180.43 49 168.819 49C157.214 49 147.802 40.0482 147.802 29C147.802 28.8659 147.807 28.7317 147.807 28.5976C163.97 20.4456 184.872 24.39 166.282 44.1614C174.713 40.2022 181.182 34.5936 182.789 29.4223C185.41 20.9722 178.222 17.8326 168.663 18.6622C161.02 19.3279 153.811 22.1446 148 26.233C149.42 16.4963 158.196 9 168.819 9Z" fill="#FAFCFF"/>
<path fill-rule="evenodd" clip-rule="evenodd" d="M53.3253 33.1403V27.6651L53.3153 26.383V21.9184C53.3153 21.6419 53.1906 21.3905 52.996 21.2195C52.582 20.8626 51.6291 21.0586 51.1003 21.1642C48.4414 21.6972 48.8554 23.482 48.8554 27.6098V32.9844C48.8554 34.7492 49.1597 36.0262 49.7284 36.7753C50.2373 37.444 51.0205 37.8663 52.0781 38.0423C52.5071 38.1127 52.7765 38.0976 53.2255 38.0976H71.6388C72.1377 38.0976 72.5467 37.6854 72.5467 37.1826V33.2509C72.5467 31.4862 72.2424 30.2544 71.6737 29.46C70.9753 28.6254 69.793 28.1829 68.1317 28.1829H63.0632C62.9784 28.1829 62.8886 28.1829 62.7589 28.1829C62.6292 28.1829 62.5394 28.1829 62.4546 28.1829C61.6215 28.1829 61.0977 28.0522 60.7934 27.8762C60.3544 27.6098 60.1398 27.0366 60.1398 26.1568C60.1398 25.1009 60.4042 24.4373 60.9281 24.0853C61.3222 23.8641 62.0206 23.7334 63.0682 23.7334H69.4238C70.9853 23.7334 70.8605 23.6228 71.4841 24.7591C73.744 28.8617 75.959 32.9894 78.3087 37.0418C78.9971 38.2283 78.8375 38.0976 80.4688 38.0976H90.2167C91.8779 38.0976 93.0602 37.6552 93.7587 36.7753C94.3274 36.0262 94.5918 34.7492 94.5918 32.9844V26.197C94.5918 24.392 94.3274 23.1552 93.7587 22.4061C93.0602 21.5262 91.8779 21.0838 90.2167 21.0838H81.3518C80.8529 21.0838 80.4438 21.4961 80.4438 21.9988V28.6103C80.4438 29.646 81.5014 29.5253 82.2048 29.46C85.1482 29.1835 84.8588 28.0824 84.8588 26.0059V23.6278H87.2634C88.311 23.6278 89.0144 23.7585 89.3636 24.025C89.9323 24.3317 90.1917 25.0406 90.1917 26.0512V33.276C90.1917 34.2011 89.9273 34.8195 89.3636 35.1262C88.9695 35.3475 88.2711 35.4782 87.2634 35.4782L81.3268 35.4681C80.4139 35.4681 80.4638 35.4229 80.0298 34.6385C77.6951 30.4102 75.4751 26.383 73.1454 22.1547C72.6116 21.1894 72.4968 21.1139 71.3794 21.1139C70.681 21.1139 70.1721 21.1139 69.4687 21.1139C66.3508 21.1139 63.2328 21.1139 60.1149 21.1139C58.4088 21.1139 57.2314 21.5966 56.5729 22.4815C56.0042 23.2306 55.6999 24.5077 55.6999 26.3126C55.6999 28.0321 56.0042 29.2186 56.6178 29.8371C57.2314 30.4102 58.4088 30.7169 60.1149 30.7169H65.1884C66.4106 30.7169 67.2437 30.9381 67.5929 31.3353C67.9422 31.6873 68.1168 32.5269 68.1168 33.8039V34.5631C68.1168 35.0659 67.7077 35.4782 67.2088 35.4782H55.7199C54.6722 35.4782 53.9189 35.272 53.5448 34.5832C53.2754 34.1006 53.3253 33.6833 53.3253 33.1403ZM126.14 38.0122H134.98C136.686 38.0122 137.864 37.5697 138.522 36.6899C139.091 35.9407 139.395 34.6637 139.395 32.8989V26.202C139.395 24.3971 139.091 23.1602 138.522 22.4111C137.869 21.5312 136.686 21.0888 134.98 21.0888H126.14C125.641 21.0888 125.232 21.5011 125.232 22.0039V22.7228C125.232 23.2256 125.641 23.6379 126.14 23.6379H132.052C133.099 23.6379 133.803 23.7686 134.192 24.0351C134.716 24.3417 134.98 25.0507 134.98 26.0612V33.2006C134.98 34.1257 134.716 34.7441 134.192 35.0508C133.798 35.272 133.055 35.4028 132.052 35.4028H126.14C125.641 35.4028 125.232 35.815 125.232 36.3178V37.082C125.232 37.5948 125.641 38.0071 126.14 38.0122ZM85.1432 44.0002H85.0035C84.5046 44.0002 84.0956 43.5879 84.0956 43.0851V40.5562C84.0956 40.0534 84.5046 39.6411 85.0035 39.6411H87.5128C88.0117 39.6411 88.4207 40.0534 88.4207 40.5562V40.697C88.4207 42.5019 86.9341 44.0002 85.1432 44.0002ZM117.749 34.4927V34.5179C117.734 35.0106 117.33 35.4078 116.841 35.4078H106.654C105.557 35.4078 104.474 35.5787 103.681 35.0558C103.157 34.7492 102.893 34.176 102.893 33.2509V21.9184C102.893 21.6419 102.768 21.3905 102.574 21.2195C102.16 20.8626 101.207 21.0586 100.678 21.1642C98.019 21.6972 98.4331 23.482 98.4331 27.6098V32.8989C98.4331 34.7039 98.7374 35.9407 99.351 36.6899C99.8748 37.439 100.793 37.9217 102.105 38.0122H121.261C121.76 38.0122 122.169 37.5999 122.169 37.0971V33.2056C122.169 31.4409 121.865 30.1639 121.296 29.4147C120.598 28.5349 119.416 28.0924 117.709 28.0924H112.681C112.591 28.0924 112.506 28.0924 112.376 28.0924C112.247 28.0924 112.112 28.0924 112.072 28.0924C111.239 28.0924 110.675 28.0019 110.411 27.826C109.972 27.5193 109.757 26.9461 109.757 26.0612C109.757 25.0456 110.022 24.3417 110.546 24.0351C110.94 23.7686 111.638 23.6379 112.686 23.6379H120.398C120.897 23.6379 121.306 23.2256 121.306 22.7228V22.0039C121.306 21.5011 120.897 21.0888 120.398 21.0888H109.757C108.051 21.0888 106.874 21.5312 106.215 22.4111C105.647 23.1602 105.342 24.4373 105.342 26.2422C105.342 28.007 105.647 29.1935 106.26 29.7667C106.874 30.3851 108.051 30.6918 109.757 30.6918H114.831C116.053 30.6918 116.841 30.8677 117.235 31.2649C117.585 31.6621 117.759 32.4565 117.759 33.7336C117.754 33.9749 117.754 34.2212 117.749 34.4927Z" fill="#FAFCFF"/>
<path fill-rule="evenodd" clip-rule="evenodd" d="M36.2733 14.039H36.413C36.9119 14.039 37.3209 14.4512 37.3209 14.954V17.483C37.3209 17.9857 36.9119 18.398 36.413 18.398H33.9037C33.4048 18.398 32.9957 17.9857 32.9957 17.483V17.3422C32.9957 15.5372 34.4824 14.039 36.2733 14.039ZM16.2986 38.0967H27.2587C28.037 38.0967 28.2515 38.0213 28.6206 37.3626C28.8002 37.0408 28.8152 36.9755 28.9549 36.6336C29.0297 36.4476 29.0547 36.9403 29.0696 37.4079C29.0896 37.9559 29.1794 38.0715 29.4887 38.0916H32.9508C33.1703 38.0916 33.3449 38.0967 33.5195 38.0916H40.0098C40.4538 38.0916 40.7282 38.1067 41.1572 38.0363C42.2198 37.8604 43.003 37.438 43.5069 36.7693C44.0756 36.0202 44.3799 34.7432 44.3799 32.9784V20.0119L44.37 19.3734V14.9037C44.37 14.6272 44.2452 14.3758 44.0507 14.2049C43.6366 13.8479 42.6838 14.044 42.155 14.1496C39.496 14.6825 39.9101 15.8238 39.9101 19.9516V33.1343C39.9101 33.6773 39.9599 34.0946 39.6906 34.5974C39.3663 35.2007 38.7527 35.432 37.9046 35.4822V35.4923H37.0316C37.2162 34.8136 37.3159 33.9739 37.3159 32.9784V27.7295L37.306 26.4474V21.9928C37.306 21.7163 37.1812 21.4649 36.9867 21.294C36.5726 20.937 35.6198 21.1331 35.091 21.2387C32.432 21.7716 32.8461 23.5565 32.8461 27.6842V33.1393C32.8461 33.6823 32.896 34.0996 32.6266 34.6024C32.3023 35.2057 31.6887 35.437 30.8406 35.4873V35.4973H29.2642C29.4488 34.8186 29.5485 33.979 29.5485 32.9835V26.196C29.5485 24.3911 29.2442 23.1542 28.6755 22.4051C28.022 21.5253 26.8397 21.0828 25.1335 21.0828H16.2986C15.7997 21.0828 15.3906 21.4951 15.3906 21.9979V22.7168C15.3906 23.2196 15.7997 23.6319 16.2986 23.6319H22.2102C23.2578 23.6319 23.9612 23.7626 24.3503 24.0291C24.8741 24.3358 25.1385 25.0447 25.1385 26.0552V33.2801C25.1385 34.2052 24.8741 34.8236 24.3503 35.1303C23.9562 35.3515 23.2129 35.4822 22.2102 35.4822H16.2986C15.7997 35.4822 15.3906 35.8945 15.3906 36.3973V37.1615C15.3906 37.6844 15.7997 38.0967 16.2986 38.0967Z" fill="#FAFCFF"/>
</g>
</g>
</svg>
