<svg xmlns:xlink="http://www.w3.org/1999/xlink" width="24" height="24" viewBox="0 0 24 24" fill="none" xmlns="http://www.w3.org/2000/svg"><path d="M17.1993 10.0906C17.1993 6.17026 14.0195 3 10.0997 3C6.17985 3 3 6.18026 3 10.0906C3 14.0009 6.17985 17.1811 10.0997 17.1811C11.6696 17.1811 13.1195 16.6711 14.2895 15.811C16.0494 14.5209 17.1993 12.4408 17.1993 10.0806V10.0906Z" stroke="#ED1C24" stroke-width="1.5px" stroke-miterlimit="10" fill="none"></path><path d="M14.2898 15.8212L19.0796 20.6015C19.4595 20.9416 19.8995 21.1016 20.3295 20.9316C20.6295 20.8116 20.8695 20.6415 20.9695 20.2215C21.0695 19.8015 20.9195 19.3714 20.6095 19.0714L15.8397 14.311C15.8397 14.311 14.8198 15.4711 14.2798 15.8212H14.2898Z" stroke="#ED1C24" stroke-width="1.5px" stroke-miterlimit="10" fill="none"></path><path d="M10.1496 10.4306C11.3756 10.4306 12.3695 9.43658 12.3695 8.21041C12.3695 6.98424 11.3756 5.99023 10.1496 5.99023C8.92357 5.99023 7.92969 6.98424 7.92969 8.21041C7.92969 9.43658 8.92357 10.4306 10.1496 10.4306Z" stroke="#ED1C24" stroke-width="1.5px" stroke-miterlimit="10" fill="none"></path><path d="M6.83758 16.2983C6.1963 16.2009 5.71317 14.7096 6.19639 13.8519C6.6796 12.9942 7.57169 12 8.98416 12H11.3166C11.5396 12 11.7255 12.0487 11.9671 12.1365C12.4503 12.3022 13.2402 12.8285 13.7791 13.7934C14.2531 14.6511 13.9371 15.7525 13.0915 16.2009C13.0915 16.2009 13.0822 16.2009 13.0729 16.2009C12.6733 16.4056 10.3131 17.8372 6.83758 16.2886V16.2983Z" stroke="#ED1C24" stroke-width="1.5px" stroke-miterlimit="10" fill="none"></path></svg>