<svg width="118" height="102" viewBox="0 0 118 102" fill="none" xmlns="http://www.w3.org/2000/svg">
<g id="Layer_1" clip-path="url(#clip0_22149_63290)">
<path id="Vector" d="M0.937869 11.908C0.991723 11.7631 1.04802 11.6207 1.10677 11.4782C1.27078 11.0829 1.43235 10.6826 1.62573 10.302C2.02474 9.51614 2.52411 8.77944 3.11406 8.12377C3.704 7.4681 4.35269 6.91803 5.07727 6.4539C5.80185 5.98978 6.60232 5.62388 7.43216 5.3734C8.262 5.12292 9.07225 4.99768 9.91188 4.96575C12.9522 4.8577 15.9998 4.88472 19.0426 4.93383C19.9654 4.94856 20.2788 4.74474 20.2616 3.75756C20.2078 0.79354 20.3522 0.695312 23.3435 0.695312C31.5636 0.695312 39.7837 0.695312 48.0013 0.695312C49.9694 0.695312 50.339 1.06367 50.3415 3.01103C50.3439 4.90927 50.3439 4.90191 52.2631 4.90927C55.154 4.9191 58.0499 4.85034 60.936 4.97803C65.7584 5.19168 69.8659 9.24111 69.981 14.0714C70.1279 20.137 70.0397 26.2099 70.0544 32.2779C69.0802 32.5382 68.1059 32.5382 67.1341 32.2706C67.1341 26.5807 67.1561 20.8933 67.1341 15.2035C67.1169 10.9478 64.4512 8.03291 60.3118 7.87083C57.2323 7.7505 54.148 7.85364 51.0636 7.81926C50.4149 7.8119 50.3219 8.09676 50.3341 8.64192C50.361 9.8624 50.3537 11.0853 50.339 12.3083C50.3243 13.6466 49.7809 14.1795 48.4003 14.1378C39.7151 13.8774 31.0226 13.6564 22.3472 14.1328C20.8711 14.2139 20.269 13.6908 20.242 12.3156C20.2176 11.0952 20.2176 9.87222 20.242 8.64929C20.2518 8.10658 20.1613 7.80207 19.5052 7.81926C17.5298 7.87574 15.5519 7.8782 13.5739 7.9003C11.902 7.71121 10.2203 7.66947 8.58757 8.08693C5.42977 8.8924 3.47634 11.6428 3.47634 15.2011C3.47145 37.2728 3.47634 59.3421 3.47634 81.4138C3.47634 81.7183 3.47879 82.0253 3.49348 82.3298C3.63546 85.3011 6.00503 88.081 8.92048 88.6114C10.4578 88.8914 12.0171 88.9184 13.5739 88.7145C14.1419 88.7416 14.7122 88.7907 15.2801 88.7907C25.1354 88.7956 34.9907 88.7907 44.8459 88.7907V91.7007C33.7324 91.7007 22.6214 91.7007 11.5079 91.6982C8.64142 91.6982 5.69904 91.1187 3.61343 89.0019C2.62692 87.9999 1.89989 86.7672 1.33198 85.4878C0.942765 84.6086 0.661256 83.7934 0.568235 82.8258C0.428705 81.3647 0.529069 79.8864 0.529069 78.4203V14.4742C0.529069 13.8824 0.536413 13.3028 0.678391 12.7233C0.746932 12.4458 0.832609 12.1757 0.932973 11.908H0.937869ZM28.183 11.1516C34.3248 11.1615 40.4642 11.1664 46.606 11.1909C47.1494 11.1909 47.426 11.1197 47.4113 10.464C47.3599 8.26129 47.3673 6.05608 47.3526 3.85087C47.3526 3.67897 47.2596 3.6667 47.1323 3.6667C40.8167 3.6667 34.5011 3.66915 28.1855 3.67161C26.7779 3.65933 25.3704 3.67897 23.9653 3.62004C23.2774 3.59057 23.1453 3.87297 23.155 4.48935C23.1869 6.43671 23.1869 8.38407 23.155 10.329C23.1453 10.9429 23.2701 11.2228 23.9604 11.1958C25.3655 11.1369 26.773 11.1615 28.1806 11.1492L28.183 11.1516Z" fill="#E10A0A"/>
<path id="Vector_2" d="M67.1397 32.2729C68.1115 32.5406 69.0858 32.5406 70.0601 32.2803C74.2803 32.3393 78.5029 32.4326 82.7231 32.4522C91.1708 32.4915 99.621 32.4891 108.069 32.5038C113.811 32.5136 117.503 36.1996 117.5 41.9385C117.5 46.2139 117.483 50.4892 117.469 54.7671C117.461 56.5302 116.979 57.0091 115.221 56.9772C111.493 56.9084 107.765 56.8593 104.037 56.7291C103.09 56.6972 102.83 56.9477 102.83 57.9079C102.84 66.3456 102.801 74.7834 102.767 83.2187C102.754 86.0059 102.735 88.7931 102.691 91.5778C102.603 97.2554 98.375 101.624 92.713 101.651C79.9251 101.715 67.1373 101.712 54.3519 101.651C49.2456 101.626 45.4244 97.8963 44.9348 92.732C44.903 92.3907 44.8785 92.0469 44.8516 91.7055C44.8516 90.7355 44.8516 89.7655 44.8516 88.798C44.8687 88.4935 44.8981 88.189 44.903 87.8845C44.9299 85.9617 45.2677 85.6203 47.1697 85.6179C49.4512 85.6154 51.7351 85.5687 54.0165 85.64C54.9834 85.6694 55.2135 85.3625 55.216 84.4244C55.2331 74.3512 55.3017 64.2755 55.3457 54.2022C55.3653 49.8508 55.3384 45.5017 55.38 41.1503C55.4265 36.5851 58.6528 32.9802 63.1594 32.462C64.4764 32.3098 65.813 32.3319 67.1397 32.2754V32.2729ZM102.022 35.6299C101.964 35.5169 101.905 35.404 101.844 35.291C89.2443 35.291 76.6449 35.2566 64.048 35.3155C60.6919 35.3303 58.342 37.9259 58.3248 41.3393C58.2538 55.6978 58.2049 70.0586 58.1143 84.417C58.1094 85.3649 58.3566 85.64 59.3138 85.6351C67.3086 85.5982 75.3035 85.6129 83.2983 85.6154C85.3423 85.6154 85.6606 85.9592 85.6948 87.9999C85.7242 89.7532 85.4696 91.5287 85.8711 93.2526C86.6764 96.7004 89.9101 99.0259 93.3152 98.6993C96.9258 98.3506 99.6185 95.5118 99.7385 91.8479C99.8192 89.407 99.8266 86.9611 99.8339 84.5177C99.8706 70.9599 99.9172 57.402 99.9098 43.8442C99.9098 40.9121 99.9392 38.0364 102.022 35.6299ZM85.6557 98.7091C83.1368 96.0472 82.4954 93.0242 82.7647 89.7532C82.8479 88.739 82.5224 88.4689 81.5114 88.4738C72.836 88.5131 64.1606 88.4959 55.4828 88.4959C53.2381 88.4959 50.9934 88.5156 48.7486 88.4837C48.0583 88.4738 47.7988 88.6948 47.838 89.4021C47.8894 90.3917 47.8233 91.3887 47.8625 92.3784C48.002 95.8335 50.751 98.6723 54.1683 98.6895C64.5547 98.7386 74.9436 98.7067 85.6581 98.7067L85.6557 98.7091ZM114.524 47.0415C114.524 47.0415 114.538 47.0415 114.546 47.0415C114.546 45.0966 114.573 43.1516 114.541 41.2067C114.49 38.0512 111.983 35.5267 108.894 35.4727C105.709 35.4187 102.989 37.8375 102.913 40.9857C102.818 44.9885 102.882 48.9937 102.855 52.999C102.85 53.5834 103.026 53.7921 103.626 53.7995C106.97 53.8462 110.316 53.9076 113.657 54.0156C114.392 54.0402 114.551 53.7823 114.538 53.1046C114.502 51.0835 114.524 49.0625 114.524 47.0415Z" fill="#1CB65D"/>
<path id="Vector_3" d="M13.5787 7.90276C12.5383 8.55597 11.329 8.88995 10.4233 9.82557C9.0476 11.2474 8.32302 12.932 8.32057 14.8573C8.29609 37.1598 8.29854 59.4648 8.31322 81.7674C8.31322 84.8346 10.132 87.3001 13.0352 88.3732C13.2458 88.4518 13.4905 88.4592 13.5811 88.7195C12.0242 88.9208 10.4649 88.8938 8.92765 88.6163C6.01219 88.0859 3.64262 85.3061 3.50065 82.3347C3.48596 82.0302 3.48351 81.7232 3.48351 81.4187C3.48351 59.347 3.48106 37.2777 3.48351 15.206C3.48351 11.6477 5.43694 8.89486 8.59473 8.09185C10.2275 7.67684 11.9092 7.71613 13.5811 7.90522L13.5787 7.90276Z" fill="#FCD6D6"/>
<path id="Vector_4" d="M28.1892 3.67394C28.1892 6.16647 28.1867 8.65899 28.1843 11.1515C26.7767 11.1613 25.3692 11.1392 23.9641 11.1982C23.2738 11.2276 23.1489 10.9452 23.1587 10.3313C23.1905 8.38395 23.1905 6.43659 23.1587 4.49169C23.1489 3.87776 23.2811 3.59536 23.969 3.62237C25.3741 3.68131 26.7816 3.66166 28.1892 3.67394Z" fill="#FCD6D6"/>
<path id="Vector_5" d="M19.2036 48.338C19.184 39.3943 26.3662 32.1501 35.2717 32.1304C44.1355 32.1108 51.4107 39.3796 51.4376 48.2815C51.4645 57.1662 44.2261 64.4497 35.3304 64.4866C26.4568 64.5234 19.2208 57.2767 19.2012 48.338H19.2036ZM22.1313 48.2839C22.1044 55.5356 27.9989 61.5127 35.2203 61.5569C42.4612 61.6011 48.4781 55.6068 48.4928 48.333C48.5075 41.0519 42.5272 35.0527 35.2717 35.0699C28.0381 35.0871 22.1582 41.0028 22.1313 48.2864V48.2839Z" fill="#E10A0A"/>
<path id="Vector_6" d="M70.2466 69.8109C70.2809 70.6925 69.9357 71.3261 69.0251 71.4538C68.0582 71.5888 67.5441 71.0436 67.3434 70.135C67.27 69.8035 67.2406 69.4352 67.0668 69.1601C66.6409 68.4799 65.9995 68.2024 65.2015 68.4382C64.3496 68.6911 63.9677 69.3001 64.0241 70.1645C64.0755 70.9945 64.5773 71.4808 65.3557 71.6674C65.7596 71.7632 66.1904 71.7386 66.5943 71.8344C68.5453 72.2862 69.9553 73.7989 70.2001 75.6603C70.4547 77.6077 69.5881 79.4175 67.8575 80.3753C67.3459 80.6577 67.035 80.9106 67.0154 81.5565C66.9934 82.357 66.4279 82.8138 65.6641 82.8383C64.9053 82.8629 64.2909 82.4528 64.2248 81.6547C64.1636 80.8983 63.7523 80.5791 63.1771 80.2132C61.8038 79.3414 61.0596 78.0546 61.0547 76.3921C61.0523 75.5425 61.4733 75.0047 62.3154 74.9015C63.1599 74.7984 63.6838 75.2429 63.9065 76.0508C63.9677 76.2694 63.9702 76.5051 64.0289 76.7261C64.2688 77.6372 64.9126 78.0816 65.8012 77.9932C66.6874 77.9048 67.2602 77.3597 67.2822 76.3995C67.3042 75.459 66.8024 74.9064 65.9187 74.6903C65.7009 74.6363 65.4634 74.6682 65.2358 74.6412C63.1502 74.3981 61.5223 72.9223 61.1233 70.9135C60.739 68.9809 61.6618 66.9942 63.4586 65.9825C63.9066 65.732 64.2493 65.5405 64.2811 64.9167C64.3202 64.1211 64.898 63.7036 65.6715 63.6815C66.4083 63.6594 66.9566 64.0793 67.0595 64.789C67.1598 65.484 67.5368 65.7885 68.0827 66.1249C69.4315 66.9549 70.1683 68.2 70.2417 69.8084L70.2466 69.8109Z" fill="#1CB65D"/>
<path id="Vector_7" d="M74.7896 39.6008C78.8213 39.6008 82.853 39.6082 86.8847 39.5959C87.6093 39.5959 88.2604 39.6867 88.6521 40.3817C89.2469 41.4352 88.4758 42.5452 87.0879 42.5574C84.4246 42.582 81.7637 42.5624 79.1004 42.5574C73.7762 42.5476 68.4495 42.5329 63.1254 42.5206C62.8218 42.5206 62.5134 42.5353 62.2147 42.4985C61.3041 42.3929 60.6677 41.9165 60.7264 40.9563C60.7827 40.0232 61.3947 39.564 62.3518 39.5664C66.4986 39.5738 70.6429 39.5689 74.7896 39.5689C74.7896 39.5787 74.7896 39.591 74.7896 39.6008Z" fill="#1CB65D"/>
<path id="Vector_8" d="M74.7577 57.9202C70.6501 57.9202 66.5426 57.9152 62.435 57.9251C61.681 57.9251 61.096 57.6869 60.7631 56.9796C60.5036 56.432 60.648 55.931 61.0054 55.489C61.4069 54.9954 61.9723 54.9561 62.5623 54.9586C68.1533 54.9733 73.7443 54.9782 79.3353 54.9881C81.8444 54.993 84.356 55.0003 86.8651 55.0053C87.7757 55.0053 88.5541 55.2238 88.7304 56.2773C88.9017 57.2915 88.209 57.9472 86.9654 57.9496C82.897 57.9594 78.8261 57.9521 74.7577 57.9521V57.9177V57.9202Z" fill="#1CB65D"/>
<path id="Vector_9" d="M74.908 47.3438C78.9006 47.3438 82.8906 47.3389 86.8832 47.3463C88.1757 47.3463 88.7778 47.8251 88.7729 48.7927C88.768 49.7553 88.1292 50.2857 86.8807 50.2808C78.7439 50.2538 70.6095 50.2194 62.4727 50.1777C61.3295 50.1727 60.6563 49.6055 60.6661 48.7239C60.6735 47.8497 61.3662 47.2407 62.4751 47.2357C66.6194 47.2186 70.7637 47.2284 74.908 47.2284C74.908 47.2677 74.908 47.3045 74.908 47.3438Z" fill="#1CB65D"/>
<path id="Vector_10" d="M82.4557 81.9713C79.9809 81.9713 77.506 81.9713 75.0312 81.9713C74.243 81.9713 73.6163 81.7086 73.3275 80.9006C73.1047 80.272 73.3519 79.7858 73.7926 79.3634C74.1181 79.0515 74.5294 79.0098 74.9602 79.0098C79.949 79.0171 84.9354 79.0098 89.9242 79.0245C91.0576 79.027 91.7039 79.604 91.6916 80.5176C91.6794 81.4262 91.0331 81.9713 89.8802 81.9762C87.4053 81.991 84.9305 81.9811 82.4557 81.9811V81.9689V81.9713Z" fill="#1CB65D"/>
<path id="Vector_11" d="M87.3413 73.9854C84.9081 73.9854 82.4724 73.9928 80.0392 73.983C78.8348 73.9781 78.2302 73.5041 78.1984 72.5832C78.1666 71.6206 78.8201 71.0411 80.0319 71.0386C84.9007 71.0288 89.7672 71.0288 94.636 71.0386C95.8869 71.0386 96.5234 71.5617 96.5258 72.5218C96.5283 73.4968 95.9187 73.9805 94.6434 73.983C92.2102 73.9904 89.7745 73.983 87.3413 73.983V73.9854Z" fill="#1CB65D"/>
<path id="Vector_12" d="M94.1421 47.378C94.6366 47.378 95.1335 47.3583 95.6256 47.3829C96.4848 47.4246 96.9743 47.9281 97.0307 48.7507C97.0845 49.5242 96.6684 50.1185 95.8924 50.2389C94.688 50.4255 93.4592 50.4034 92.2572 50.2192C91.4862 50.1013 91.0578 49.5046 91.1239 48.7311C91.1924 47.9231 91.6746 47.4025 92.5436 47.3755C93.0748 47.3583 93.6085 47.3731 94.1421 47.3731V47.378Z" fill="#1CB65D"/>
<path id="Vector_13" d="M94.0584 57.9593C93.5247 57.9593 92.9911 57.9863 92.4623 57.952C91.6104 57.8979 91.1135 57.3847 91.0817 56.562C91.0499 55.7959 91.488 55.2041 92.2616 55.1009C93.466 54.9413 94.6924 54.9315 95.8943 55.1377C96.685 55.2728 97.0374 55.8597 96.9762 56.648C96.9151 57.4461 96.4548 57.9004 95.6568 57.9544C95.1256 57.9888 94.592 57.9618 94.0608 57.9618C94.0608 57.9618 94.0608 57.9593 94.0608 57.9569L94.0584 57.9593Z" fill="#1CB65D"/>
<path id="Vector_14" d="M94.0492 42.5599C93.518 42.5599 92.977 42.6188 92.4531 42.5451C91.6967 42.4371 91.2145 41.9901 91.1778 41.1748C91.1411 40.3031 91.6111 39.7334 92.414 39.6646C93.5449 39.5688 94.6979 39.5762 95.8288 39.6842C96.6342 39.7604 97.1384 40.3718 97.0674 41.2043C96.9989 42.0049 96.4946 42.5255 95.6428 42.5721C95.1116 42.5991 94.5779 42.577 94.0467 42.577C94.0467 42.5721 94.0467 42.5648 94.0467 42.5599H94.0492Z" fill="#1CB65D"/>
<path id="Vector_15" d="M75.0415 71.0138C76.2042 71.0236 76.8799 71.6056 76.8431 72.5731C76.8089 73.4866 76.1479 73.9974 75.0219 73.9729C73.9718 73.9508 73.2325 73.3319 73.2423 72.4773C73.2496 71.6129 73.9987 71.0039 75.0415 71.0113V71.0138Z" fill="#1CB65D"/>
<path id="Vector_16" d="M94.957 79.0369C95.9778 79.0909 96.5653 79.6729 96.5261 80.5913C96.4845 81.5417 95.7404 82.077 94.5801 81.9911C93.596 81.9198 92.9791 81.2666 93.0575 80.3801C93.1358 79.4838 93.853 78.9779 94.9595 79.0369H94.957Z" fill="#1CB65D"/>
<path id="Vector_17" d="M28.0455 46.4348C28.4053 46.4127 28.7774 46.7295 29.1323 47.0905C30.3392 48.306 31.5827 49.4872 32.7455 50.7445C33.2718 51.3143 33.5679 51.2381 34.0796 50.7372C36.6082 48.2594 39.1761 45.8209 41.7293 43.3701C42.236 42.8839 42.75 42.4345 43.5358 42.7071C44.6986 43.1098 44.8993 44.3794 43.9054 45.3568C42.3877 46.8523 40.8358 48.3159 39.296 49.7893C37.7563 51.2651 36.2264 52.7484 34.672 54.2071C33.661 55.1574 33.027 55.1402 32.0405 54.1604C30.3392 52.4684 28.6526 50.7642 26.9611 49.0648C26.4715 48.5737 26.1949 48.0261 26.5131 47.3188C26.775 46.7344 27.223 46.4495 28.0455 46.4373V46.4348Z" fill="#E10A0A"/>
</g>
<defs>
<clipPath id="clip0_22149_63290">
<rect width="117" height="101" fill="white" transform="translate(0.5 0.695312)"/>
</clipPath>
</defs>
</svg>
