<svg width="116" height="115" viewBox="0 0 116 115" fill="none" xmlns="http://www.w3.org/2000/svg">
<g id="Layer_1" clip-path="url(#clip0_22149_63310)">
<path id="Vector" d="M0.499204 3.76502C1.07648 3.04745 1.80821 2.80994 2.73489 2.84279C4.63637 2.90596 6.54038 2.85542 8.44185 2.863C9.89518 2.87058 10.394 3.35823 10.3965 4.79337C10.4117 10.1903 10.4168 15.5897 10.4243 20.9867C9.40651 21.1256 8.38868 21.1231 7.36831 20.9867C7.38097 16.9213 7.39617 12.8559 7.40376 8.79053C7.40883 5.64232 7.40376 5.65748 4.2262 5.84193C3.70462 5.87225 3.49953 6.00869 3.50207 6.54939C3.53498 11.3601 3.55017 16.1684 3.57043 20.9791C3.41598 21.9847 3.41092 22.9903 3.57296 23.9959C3.46662 28.2154 3.46156 32.4324 3.57296 36.6519C3.40839 37.6626 3.41345 38.6732 3.57043 39.6839C3.55017 39.9795 3.50966 40.2777 3.50966 40.5733C3.50713 54.4497 3.50713 68.326 3.50966 82.2024C3.50966 82.498 3.55524 82.7936 3.57802 83.0892C3.4413 84.7973 3.45143 86.5078 3.57043 88.2158C3.40839 89.2164 3.41345 90.2195 3.56536 91.22C3.54511 95.4269 3.52232 99.6338 3.50713 103.843C3.49953 106.307 3.50713 106.307 5.91752 106.324C6.14033 106.324 6.3682 106.309 6.58848 106.337C7.22653 106.418 7.41895 106.155 7.41389 105.518C7.38097 100.751 7.38097 95.9827 7.37085 91.2175C8.38615 91.0911 9.40145 91.0886 10.4168 91.2175C10.4092 96.5209 10.4016 101.824 10.394 107.128C10.3914 108.932 9.97873 109.334 8.13549 109.336C6.33782 109.336 4.54016 109.288 2.74755 109.356C1.81581 109.392 1.09167 109.131 0.494141 108.447V3.76502H0.499204Z" fill="#E10A0A"/>
<path id="Vector_2" d="M10.423 91.2179C9.40774 91.0916 8.39244 91.0916 7.37714 91.2179C6.10864 91.2179 4.84015 91.2179 3.57419 91.2204C3.42227 90.2199 3.41721 89.2168 3.57925 88.2162C4.0274 88.2238 4.47808 88.239 4.92623 88.239C18.5531 88.239 32.1773 88.239 45.8041 88.239C52.3542 88.239 58.9069 88.2541 65.4569 88.2314C68.8269 88.2213 71.4627 85.778 71.4703 82.5616C71.5006 68.5538 71.4779 54.5461 71.5032 40.5358C71.5032 39.7449 71.1968 39.6262 70.5157 39.6287C69.1333 39.6338 67.7458 39.7475 66.3684 39.5504C65.2924 38.4993 65.2898 37.8373 66.3583 36.7736C67.8091 36.7458 69.2599 36.6978 70.7107 36.7028C71.2753 36.7028 71.5057 36.5462 71.4981 35.9474C71.4677 33.7542 71.5488 31.5586 71.4601 29.368C71.3487 26.571 69.0903 24.3147 66.3431 24.11C65.8798 23.8927 65.3861 23.9812 64.9075 23.9812C54.7418 23.9761 44.5787 23.9736 34.413 23.9786C24.1359 23.9812 13.8589 23.9913 3.58431 23.9963C3.41974 22.9907 3.4248 21.9851 3.57925 20.9795C4.84521 20.9795 6.11117 20.9845 7.37714 20.9871C8.39497 21.1235 9.4128 21.126 10.4332 20.9871C28.7694 20.9921 47.103 20.9896 65.4392 21.0022C69.9106 21.0048 73.3186 23.7032 74.2883 27.9354C74.4655 28.7085 74.4554 29.4918 74.4554 30.275C74.4605 47.4891 74.463 64.7032 74.4554 81.9173C74.4529 87.5871 70.8018 91.1977 65.0974 91.2002C46.8752 91.2078 28.6529 91.2103 10.4281 91.2154L10.423 91.2179Z" fill="#1CB65D"/>
<path id="Vector_3" d="M46.5857 108.932C47.6086 109.913 48.6467 110.878 49.6468 111.881C50.4975 112.732 50.5456 113.543 49.8595 114.233C49.1835 114.913 48.3606 114.852 47.5048 114.008C45.616 112.144 43.7348 110.269 41.8687 108.379C40.9902 107.487 40.9978 106.764 41.8865 105.865C43.7525 103.977 45.6337 102.103 47.5251 100.238C48.3834 99.3915 49.1936 99.3309 49.8848 100.011C50.5634 100.678 50.5229 101.516 49.6797 102.365C48.6948 103.358 47.6567 104.296 46.5781 105.317C47.201 105.706 47.6187 105.584 48.0087 105.587C58.0047 105.594 67.9982 105.592 77.9942 105.594C78.331 105.594 78.6703 105.572 79.0045 105.612C79.9945 105.728 80.5591 106.34 80.4983 107.229C80.4325 108.187 79.8274 108.589 78.9386 108.654C78.6399 108.677 78.3411 108.659 78.0398 108.659C68.0083 108.659 57.9743 108.659 47.9428 108.659C47.5403 108.659 47.1352 108.659 46.7326 108.659C46.6845 108.75 46.6364 108.841 46.5908 108.935L46.5857 108.932Z" fill="#1CB65D"/>
<path id="Vector_4" d="M49.4012 10.1119C50.4013 11.0543 51.4217 11.9791 52.399 12.9468C53.2826 13.8236 53.3687 14.7382 52.6978 15.3951C51.9964 16.0824 51.1609 15.9965 50.2519 15.097C48.4163 13.2854 46.5908 11.4662 44.7779 9.63184C43.7905 8.63129 43.7829 7.9213 44.7526 6.93843C46.5908 5.07881 48.4441 3.22931 50.3102 1.39496C51.1761 0.543475 51.9964 0.480309 52.675 1.14482C53.3586 1.81438 53.2801 2.7265 52.4041 3.58809C51.4267 4.55074 50.4114 5.4755 49.4139 6.41541C49.462 6.50385 49.5075 6.59481 49.5556 6.68324C49.943 6.70093 50.3304 6.73377 50.7178 6.73377C56.7792 6.7363 62.8406 6.73377 68.8995 6.73883C69.2717 6.73883 69.6566 6.71861 70.0136 6.80704C70.7934 6.99654 71.2644 7.51956 71.2213 8.33314C71.1808 9.13914 70.6719 9.62173 69.887 9.76828C69.5604 9.82892 69.216 9.79355 68.8793 9.79355C62.8558 9.79355 56.8324 9.79355 50.8089 9.79355C50.4038 9.79355 50.0013 9.79355 49.5962 9.79355C49.5329 9.89967 49.467 10.0033 49.4037 10.1094L49.4012 10.1119Z" fill="#1CB65D"/>
<path id="Vector_5" d="M85.9822 72.4218C86.4936 72.7401 86.8709 72.634 87.2279 72.634C91.3802 72.6441 95.5326 72.6391 99.6824 72.6391C99.9432 72.6391 100.207 72.6264 100.467 72.6441C101.407 72.7048 102.042 73.1343 102.108 74.1298C102.166 75.0318 101.5 75.6736 100.447 75.6963C98.9887 75.7292 97.5303 75.7064 96.0719 75.7064C92.7449 75.7064 89.4154 75.7064 85.7669 75.7064C86.8076 76.7474 87.676 77.6166 88.547 78.4883C89.8028 79.744 89.9801 80.5475 89.1698 81.3131C88.385 82.0559 87.6532 81.879 86.4176 80.646C84.7238 78.9582 83.0274 77.2729 81.3411 75.575C80.3132 74.5416 80.3031 73.8241 81.3108 72.8109C83.1261 70.9816 84.9517 69.1599 86.7848 67.3457C87.6988 66.4412 88.5217 66.3629 89.2255 67.0729C89.9041 67.7576 89.8155 68.5964 88.9192 69.5136C87.9798 70.4737 87.0126 71.4035 85.9822 72.4218Z" fill="#1CB65D"/>
<path id="Vector_6" d="M90.811 42.9942C91.8693 44.0225 92.9403 45.0408 93.986 46.0817C94.6595 46.7513 94.8038 47.5043 94.1557 48.2724C93.5758 48.9571 92.6897 49.0076 91.9731 48.3128C89.9349 46.3319 87.9271 44.3232 85.937 42.2968C85.2483 41.5969 85.2889 40.796 85.9699 40.1062C87.9398 38.1102 89.9197 36.1267 91.9276 34.1686C92.6162 33.4965 93.5632 33.5319 94.1227 34.1812C94.7329 34.8887 94.6874 35.6416 94.0468 36.2884C92.9986 37.3446 91.9022 38.3552 90.8262 39.3836C90.8616 39.4872 90.8996 39.5883 90.935 39.6918C92.3251 39.6918 93.7126 39.6918 95.1026 39.6918C95.5887 39.6918 96.0774 39.6641 96.561 39.7045C97.4623 39.7803 98.0244 40.2654 98.0827 41.1927C98.1358 42.0492 97.4927 42.7137 96.5154 42.739C94.9076 42.7845 93.2973 42.7541 91.687 42.7567C91.4414 42.7567 91.1958 42.7567 90.9502 42.7567C90.9047 42.8375 90.8591 42.9184 90.811 42.9967V42.9942Z" fill="#1CB65D"/>
<path id="Vector_7" d="M113.886 39.6937C114.783 39.7139 115.486 40.3709 115.499 41.2021C115.512 42.0915 114.783 42.7661 113.825 42.751C112.891 42.7358 112.147 42.0005 112.2 41.139C112.248 40.3229 113.005 39.676 113.886 39.6937Z" fill="#1CB65D"/>
<path id="Vector_8" d="M99.3615 107.107C99.3767 107.989 98.7538 108.616 97.8297 108.654C96.8676 108.694 96.1333 108.055 96.1156 107.158C96.0979 106.306 96.7637 105.634 97.66 105.596C98.607 105.556 99.3463 106.213 99.3615 107.105V107.107Z" fill="#1CB65D"/>
<path id="Vector_9" d="M88.4057 9.80133C87.522 9.78617 86.7929 9.10902 86.7853 8.29544C86.7751 7.42627 87.5398 6.72386 88.474 6.74408C89.3678 6.76176 90.0818 7.4288 90.0945 8.24996C90.1046 9.11408 89.3425 9.81649 88.4057 9.80133Z" fill="#1CB65D"/>
<path id="Vector_10" d="M114.481 74.1526C114.502 74.9965 113.8 75.6838 112.907 75.7015C112.041 75.7166 111.281 75.0193 111.274 74.2032C111.263 73.3769 111.993 72.6619 112.859 72.6467C113.742 72.6316 114.461 73.2986 114.481 74.1526Z" fill="#1CB65D"/>
<path id="Vector_11" d="M85.0238 8.22235C85.0491 9.08647 84.3807 9.76866 83.4844 9.79898C82.621 9.82677 81.8639 9.14963 81.831 8.32089C81.8006 7.49467 82.507 6.77711 83.3882 6.74679C84.2743 6.71394 84.9985 7.37087 85.0238 8.22488V8.22235Z" fill="#1CB65D"/>
<path id="Vector_12" d="M92.7234 105.597C93.5893 105.587 94.3362 106.279 94.3564 107.108C94.3767 107.926 93.6399 108.644 92.7715 108.652C91.8726 108.659 91.1561 108 91.1485 107.156C91.1409 106.307 91.8448 105.607 92.7234 105.597Z" fill="#1CB65D"/>
<path id="Vector_13" d="M110.466 41.2408C110.454 42.0771 109.727 42.7542 108.841 42.7492C107.975 42.7466 107.238 42.0341 107.248 41.2054C107.256 40.3842 108.01 39.6843 108.879 39.6944C109.752 39.7046 110.481 40.412 110.469 41.2408H110.466Z" fill="#1CB65D"/>
<path id="Vector_14" d="M101.87 42.746C101.011 42.746 100.282 41.9981 100.318 41.1592C100.351 40.3709 101.075 39.6938 101.885 39.6963C102.715 39.6963 103.379 40.3456 103.404 41.1769C103.429 42.0663 102.763 42.7485 101.87 42.746Z" fill="#1CB65D"/>
<path id="Vector_15" d="M105.886 72.6516C106.701 72.6365 107.397 73.2909 107.438 74.1045C107.481 74.9888 106.822 75.6861 105.929 75.7013C105.075 75.7164 104.326 74.9787 104.346 74.1449C104.364 73.3616 105.08 72.6668 105.888 72.6541L105.886 72.6516Z" fill="#1CB65D"/>
<path id="Vector_16" d="M87.3314 107.136C87.3263 107.98 86.5693 108.687 85.7135 108.652C84.8577 108.616 84.245 107.98 84.25 107.131C84.2526 106.246 84.9514 105.577 85.835 105.61C86.6452 105.64 87.339 106.347 87.3339 107.136H87.3314Z" fill="#1CB65D"/>
<path id="Vector_17" d="M77.9963 8.24489C78.009 9.11406 77.3051 9.80889 76.429 9.7912C75.6239 9.77604 74.9073 9.07868 74.8947 8.29795C74.882 7.46163 75.6391 6.72384 76.4847 6.74406C77.3152 6.76427 77.9836 7.42878 77.9938 8.24236L77.9963 8.24489Z" fill="#1CB65D"/>
<path id="Vector_18" d="M3.58566 83.0895C3.96039 83.0996 4.33258 83.1198 4.7073 83.1198C23.2334 83.1198 41.757 83.092 60.283 83.1501C63.3315 83.1602 66.3166 80.7498 66.3014 77.1367C66.2989 76.3686 66.4913 75.5752 66.1368 74.8298C66.6559 72.8818 66.623 70.9363 66.1191 68.9933C66.4635 68.6067 66.3065 68.1367 66.3065 67.7072C66.3166 58.8058 66.3141 49.9044 66.3166 41.003C66.3166 40.5204 66.3495 40.0353 66.3647 39.5527C67.7446 39.7498 69.1296 39.6361 70.512 39.6311C71.1931 39.6311 71.502 39.7473 71.4995 40.5381C71.4742 54.5459 71.4995 68.5536 71.4666 82.5639C71.459 85.7803 68.8232 88.2236 65.4532 88.2337C58.9031 88.2539 52.3505 88.2413 45.8004 88.2413C32.1736 88.2413 18.5493 88.2413 4.92252 88.2413C4.47437 88.2413 4.02368 88.2262 3.57553 88.2186C3.45907 86.508 3.44641 84.8 3.58313 83.092L3.58566 83.0895Z" fill="#FCD6D6"/>
<path id="Vector_19" d="M3.57793 36.6519C15.4425 36.6594 27.3071 36.667 39.1692 36.6771C39.5819 36.6771 39.9971 36.6493 40.4022 36.7074C41.2276 36.8262 41.6555 37.3492 41.6555 38.1678C41.6555 38.989 41.22 39.507 40.3997 39.6283C39.9971 39.6889 39.5794 39.6586 39.1667 39.6586C27.3021 39.6687 15.4375 39.6763 3.5754 39.6838C3.41842 38.6732 3.41589 37.6625 3.57793 36.6519Z" fill="#1CB65D"/>
<path id="Vector_20" d="M66.3535 36.776C66.3535 36.776 66.318 25.0776 66.3383 24.1099C69.0854 24.317 71.3439 26.5733 71.4553 29.3678C71.5414 31.5584 71.4629 33.7541 71.4933 35.9472C71.5009 36.546 71.2705 36.7052 70.7059 36.7027C69.2551 36.6976 66.3535 36.7734 66.3535 36.7734V36.776Z" fill="#FCD6D6"/>
<path id="Vector_21" d="M66.1173 68.9932C66.6237 70.9362 66.654 72.8817 66.135 74.8297C63.9955 81.3333 57.9037 84.3274 51.5283 81.9827C51.0473 81.8058 50.6801 81.8892 50.2548 82.0459C43.3857 84.5776 36.3975 80.3656 35.4886 73.152C34.4986 65.284 42.4058 59.0356 49.9155 61.772C50.6219 62.0297 51.2169 62.0626 51.941 61.7947C57.5011 59.7305 64.1145 62.5477 66.1122 68.9957L66.1173 68.9932ZM47.8672 64.3113C44.6744 63.8161 42.0944 64.6827 40.1726 67.1058C38.1598 69.6425 37.8357 72.4951 39.2612 75.3957C40.6183 78.1599 42.94 79.6354 46.0518 79.7542C46.5835 79.7744 47.3279 80.0296 47.5988 79.5015C47.7937 79.1276 47.0975 78.7587 46.8569 78.3494C46.7075 78.0916 46.5151 77.8592 46.3607 77.604C44.168 73.9808 43.8743 68.887 47.8646 64.3088L47.8672 64.3113ZM54.1463 64.4477C56.0503 66.608 57.1289 69.069 57.134 71.9645C57.1391 74.8752 56.0149 77.3463 54.1084 79.5723C57.372 80.2368 60.5926 78.8244 62.2814 76.1057C64.0436 73.2683 63.8031 69.5895 61.6889 66.9996C59.8457 64.7433 56.5896 63.6165 54.1463 64.4477ZM54.1362 71.9746C54.1362 69.8446 53.1007 67.5555 51.5612 66.2012C51.1815 65.8677 50.908 65.7262 50.4269 66.1128C46.9683 68.8997 46.9785 75.0698 50.4421 77.8263C50.9232 78.2104 51.1865 78.0992 51.5612 77.748C53.2323 76.179 54.0375 74.236 54.1362 71.9746Z" fill="#1CB65D"/>
<path id="Vector_22" d="M57.0453 36.6822C58.3872 36.6822 59.7291 36.6671 61.071 36.6873C62.1775 36.7024 62.7725 37.2406 62.77 38.1679C62.77 39.0952 62.1724 39.646 61.071 39.6536C58.3872 39.6712 55.7008 39.6712 53.017 39.6536C51.9536 39.646 51.2877 39.0446 51.2852 38.1704C51.2852 37.2937 51.9485 36.7075 53.017 36.6898C54.3589 36.6696 55.7008 36.6847 57.0428 36.6847L57.0453 36.6822Z" fill="#1CB65D"/>
<path id="Vector_23" d="M46.5384 39.6813C46.1663 39.6535 45.7763 39.6914 45.4295 39.5878C44.7079 39.3731 44.2952 38.8374 44.3483 38.0845C44.399 37.3517 44.8041 36.8085 45.5814 36.7125C46.1333 36.6443 46.698 36.6695 47.2575 36.6822C48.1969 36.7024 48.7083 37.2254 48.7767 38.13C48.8425 38.9814 48.1791 39.5929 47.2119 39.651C46.9891 39.6636 46.7638 39.651 46.541 39.651C46.541 39.6586 46.541 39.6687 46.541 39.6763L46.5384 39.6813Z" fill="#1CB65D"/>
</g>
<defs>
<clipPath id="clip0_22149_63310">
<rect width="115" height="114" fill="white" transform="translate(0.5 0.695312)"/>
</clipPath>
</defs>
</svg>
