<svg width="81" height="112" viewBox="0 0 81 112" fill="none" xmlns="http://www.w3.org/2000/svg">
<g id="Layer_1" clip-path="url(#clip0_22149_63338)">
<path id="Vector" d="M60.5681 58.1532C63.4916 59.7368 66.4085 61.3314 69.3409 62.8995C72.6274 64.6571 75.9183 66.4058 79.2269 68.1216C80.1033 68.5775 80.4773 69.1854 80.4685 70.1809C80.4331 74.5836 80.588 78.9907 80.4264 83.3891C79.9595 95.9608 73.9508 104.934 62.4714 110.248C61.429 110.731 60.3844 111.213 59.3398 111.697H58.251C57.5494 111.103 56.6553 110.894 55.8364 110.541C52.7071 109.2 49.934 107.317 47.3491 105.134C46.7073 104.491 46.0655 103.848 45.4237 103.207C45.2311 102.947 45.0497 102.676 44.8438 102.427C40.2892 96.9321 37.9389 90.644 37.9433 83.5014C37.9478 79.0238 37.961 74.544 37.9278 70.0663C37.9212 69.1545 38.2509 68.5907 39.0521 68.1656C41.5153 66.8618 43.9608 65.5205 46.4041 64.1769C50.3036 62.0317 54.1965 59.8755 58.0916 57.7237C59.0278 57.248 59.7581 57.9285 60.5703 58.1576L60.5681 58.1532ZM77.7995 78.5503C77.7995 76.1297 77.7773 73.7114 77.815 71.2909C77.826 70.6214 77.5937 70.2602 77.0005 69.9496C71.2331 66.9146 65.4768 63.8598 59.7293 60.7873C59.1561 60.4812 58.698 60.4702 58.1226 60.7873C52.5721 63.84 47.0105 66.8772 41.4378 69.8924C40.8315 70.2205 40.5637 70.5663 40.5725 71.2997C40.6168 75.4161 40.4951 79.537 40.6146 83.649C40.9288 94.4895 45.9925 102.44 55.6173 107.486C58.6759 109.09 58.729 109.048 61.9026 107.592C69.653 104.037 74.6458 98.1258 76.9209 89.9546C77.9632 86.217 77.815 82.3759 77.8039 78.5503H77.7995Z" fill="#1CB65D"/>
<path id="Vector_2" d="M60.5686 58.1533C59.7586 57.922 59.0261 57.2414 58.0899 57.7194C58.0788 57.2502 58.0567 56.7811 58.0567 56.312C58.0567 39.6305 58.0567 22.949 58.0567 6.26751V4.79406C56.5009 6.03185 55.1531 7.10445 53.8031 8.17485C52.3114 9.35757 52.0945 9.35537 50.6361 8.19026C48.9674 6.85777 47.2766 5.55171 45.6367 4.18397C45.1365 3.76771 44.8244 3.82497 44.3619 4.2038C42.5958 5.64641 40.7833 7.03177 39.0261 8.48539C38.1851 9.17917 37.4636 9.2012 36.616 8.49861C34.8875 7.06701 33.0838 5.7257 31.3731 4.27648C30.7645 3.7611 30.4082 3.83819 29.8416 4.30951C28.1463 5.7213 26.3736 7.04498 24.6762 8.45456C23.802 9.18137 23.0606 9.2034 22.1775 8.46778C20.4248 7.00974 18.61 5.62879 16.8439 4.18618C16.4212 3.84259 16.1446 3.73467 15.6643 4.13332C13.7433 5.7257 11.7803 7.26963 9.83274 8.83118C9.08692 9.19899 8.46503 9.01399 7.83872 8.50081C6.34707 7.27183 4.8178 6.0847 3.20886 4.80507V103.11C4.82887 101.826 6.34043 100.665 7.80773 99.4495C8.46503 98.9055 9.10905 98.7051 9.88586 99.1192C10.2532 99.4055 10.6184 99.694 10.9858 99.9803C12.5527 101.251 14.1262 102.515 15.6842 103.797C16.0361 104.088 16.3083 104.189 16.7089 103.852C18.0589 102.716 19.4355 101.612 20.801 100.496C21.237 100.176 21.6796 99.8636 22.1067 99.5332C23.2775 98.6258 23.574 98.6236 24.758 99.542C24.955 99.6962 25.1675 99.8328 25.3733 99.9759C26.9667 101.267 28.5668 102.553 30.1492 103.857C30.49 104.139 30.7468 104.143 31.0854 103.859C32.442 102.733 33.8142 101.628 35.1819 100.516C35.6444 100.172 36.1114 99.8394 36.5651 99.487C37.696 98.606 38.101 98.6192 39.1633 99.6301C40.3119 100.723 41.4494 101.826 42.5914 102.927C43.4825 103.785 44.4261 103.877 45.422 103.205C46.0638 103.848 46.7056 104.491 47.3474 105.132C46.502 105.691 45.6433 106.231 44.8178 106.815C43.9967 107.394 43.293 107.301 42.5892 106.61C41.1927 105.242 39.752 103.916 38.371 102.531C37.9018 102.059 37.6008 101.998 37.0564 102.452C35.4187 103.824 33.7234 105.128 32.0503 106.458C30.7578 107.484 30.4591 107.478 29.1378 106.423C27.4669 105.09 25.7717 103.784 24.1362 102.412C23.5762 101.943 23.2288 101.98 22.6844 102.432C20.9603 103.868 19.1677 105.227 17.4348 106.654C16.5938 107.345 15.8569 107.348 15.0137 106.654C13.2808 105.227 11.4882 103.868 9.76192 102.434C9.22413 101.987 8.87889 101.938 8.31233 102.412C6.59052 103.854 4.80674 105.22 3.06058 106.63C2.52501 107.063 1.96287 107.387 1.27459 107.081C0.568607 106.766 0.5 106.125 0.5 105.436C0.506639 71.1104 0.506639 36.7849 0.5 2.45944C0.5 1.77007 0.581886 1.15778 1.29009 0.82521C1.96509 0.508054 2.46968 0.836222 2.96985 1.23487C4.72485 2.63564 6.5042 4.00998 8.23044 5.44379C8.80143 5.91952 9.17323 5.99 9.78627 5.47022C11.4992 4.02099 13.3029 2.67749 15.0336 1.24588C15.8369 0.580736 16.5297 0.538889 17.3507 1.21284C19.1146 2.66207 20.9338 4.04081 22.691 5.49444C23.2487 5.95696 23.6072 5.93273 24.1561 5.47682C25.8823 4.04081 27.6816 2.6929 29.4078 1.2591C30.2577 0.552104 30.9703 0.567521 31.8135 1.2657C33.5419 2.69731 35.3368 4.05183 37.0719 5.47903C37.6052 5.91732 37.9571 5.97899 38.5303 5.49664C40.2765 4.0298 42.1001 2.65326 43.8662 1.20844C44.6363 0.578533 45.3202 0.547699 46.1014 1.18201C47.9007 2.64445 49.7464 4.04742 51.5324 5.52528C52.0636 5.96577 52.3845 5.93714 52.9001 5.50986C54.5998 4.10028 56.3504 2.75017 58.0788 1.37142C58.6233 0.937536 59.1478 0.464005 59.9268 0.818602C60.7545 1.19522 60.7257 1.93746 60.7257 2.67088C60.7257 19.8347 60.7302 36.9963 60.7147 54.1602C60.7147 55.4905 60.8873 56.8318 60.5686 58.1533Z" fill="#E10A0A"/>
<path id="Vector_3" d="M9.88793 34.307V41.2183C9.53383 41.2668 9.16424 41.2668 8.83227 41.3769C8.26129 41.5663 7.95366 42.0267 7.97579 42.6125C7.99792 43.2402 8.33875 43.6939 8.98276 43.8437C9.2594 43.9076 9.55375 43.9054 9.83924 43.934C9.85031 46.6628 9.85916 49.3939 9.87023 52.1228C9.62014 52.1514 9.36563 52.1646 9.11998 52.2087C8.42506 52.3342 8.00235 52.7725 7.98022 53.4553C7.95809 54.1953 8.40293 54.6556 9.13104 54.8098C9.3767 54.8626 9.63342 54.8582 9.88351 54.8803C9.88572 58.3425 9.89014 61.8048 9.89236 65.2671C9.60686 65.2825 9.31252 65.2605 9.03809 65.3244C8.36309 65.4807 7.96915 65.9433 7.97358 66.6172C7.97801 67.2868 8.34981 67.7603 9.04252 67.8991C9.32137 67.9541 9.61129 67.9409 9.89678 67.9585C9.89678 71.1829 9.89457 74.4073 9.89236 77.6318C9.4276 77.6428 8.96063 77.6185 8.5003 77.6758C7.71686 77.7727 7.25431 78.2418 7.28751 79.0347C7.31628 79.7682 7.75891 80.1998 8.51137 80.2725C8.90088 80.31 9.2926 80.3298 9.68432 80.3562C9.68432 80.5809 9.68432 80.8055 9.68432 81.0302C9.3258 81.05 8.96506 81.0764 8.60653 81.0896C7.79874 81.1205 7.29415 81.5147 7.26538 82.3318C7.2344 83.2062 7.76112 83.6335 8.59768 83.7128C8.95621 83.748 9.31695 83.7502 9.67768 83.7678C9.67326 83.9749 9.66883 84.1819 9.66662 84.3889C9.48957 84.4088 9.31252 84.4462 9.13768 84.4418C8.39186 84.4242 7.65046 84.4814 7.32735 85.2809C6.98653 86.1223 7.50882 86.6861 8.08645 87.2191C8.71276 87.8006 9.30809 88.415 9.91449 89.0141C9.90564 92.3839 9.89678 95.7515 9.88793 99.1212C9.11112 98.705 8.46711 98.9054 7.80981 99.4516C6.34251 100.667 4.83094 101.828 3.21094 103.112V4.80273C4.81988 6.08237 6.34693 7.2695 7.84079 8.49848C8.46711 9.01385 9.08899 9.19886 9.83482 8.82885C9.85473 10.8067 9.87465 12.7845 9.89457 14.7623C8.27678 14.8768 7.95809 15.2094 7.95587 16.8106C7.95366 21.9556 7.95366 27.1005 7.95587 32.2433C7.95587 33.8445 8.27235 34.1749 9.89236 34.3048L9.88793 34.307Z" fill="#FCD6D6"/>
<path id="Vector_4" d="M10.9866 99.9806C12.1972 99.0269 13.4188 98.0886 14.6139 97.1174C15.2646 96.5866 15.9396 96.5271 16.5769 97.0205C18.0199 98.1349 19.5049 99.2031 20.7996 100.496C19.4341 101.613 18.0553 102.716 16.7075 103.853C16.3069 104.189 16.0347 104.088 15.6828 103.797C14.127 102.513 12.5535 101.251 10.9844 99.9806H10.9866Z" fill="#FCD6D6"/>
<path id="Vector_5" d="M25.3711 99.9759C26.5551 99.0486 27.7369 98.117 28.9276 97.1986C29.6557 96.6369 30.3639 96.496 31.1584 97.1699C32.4863 98.2998 33.9868 99.2248 35.1819 100.515C33.8142 101.628 32.442 102.733 31.0854 103.859C30.7446 104.141 30.4901 104.136 30.1492 103.857C28.5668 102.551 26.9668 101.267 25.3733 99.9759H25.3711Z" fill="#FCD6D6"/>
<path id="Vector_6" d="M9.88736 34.3071C8.26736 34.1772 7.95088 33.8468 7.95088 32.2456C7.94867 27.1007 7.94867 21.9557 7.95088 16.8129C7.95088 15.2095 8.27178 14.877 9.88958 14.7646C16.7392 14.7757 23.5888 14.7889 30.4406 14.7999C32.2134 14.8021 32.552 15.1281 32.552 16.8482C32.552 21.9711 32.552 27.0919 32.552 32.2148C32.552 33.9283 32.2001 34.2675 30.4384 34.2697C23.5888 34.2829 16.7392 34.2961 9.88958 34.3071H9.88736ZM20.3112 17.423C17.4098 17.423 14.5084 17.4561 11.6092 17.4032C10.7682 17.3878 10.5867 17.6521 10.5933 18.4406C10.631 22.5173 10.631 26.5963 10.5933 30.6731C10.5867 31.4461 10.8324 31.64 11.5804 31.6378C17.381 31.6113 23.1838 31.6135 28.9844 31.6334C29.6461 31.6356 29.9361 31.5232 29.9294 30.759C29.8896 26.6095 29.894 22.4601 29.9272 18.3106C29.9338 17.5904 29.717 17.401 29.0132 17.4098C26.1118 17.4473 23.2126 17.4252 20.3112 17.4252V17.423Z" fill="#E10A0A"/>
<path id="Vector_7" d="M23.9179 86.9989C24.8497 87.9988 25.7482 88.9833 26.6711 89.9458C27.4324 90.7387 27.5696 91.5404 27.003 92.1218C26.4055 92.7341 25.6641 92.657 24.8187 91.8509C23.1146 90.2277 21.426 88.5913 19.7307 86.9592C19.2704 86.5143 18.9074 86.0364 19.1885 85.3382C19.4806 84.6136 20.0826 84.4771 20.7753 84.4396C21.8951 84.3801 23.0947 84.781 24.3871 83.7172C23.1212 83.7172 22.1497 83.7194 21.1781 83.7172C19.7838 83.7106 19.0978 83.2591 19.1133 82.3605C19.1287 81.4553 19.7551 81.0786 21.2224 81.083C22.1806 81.0852 23.1389 81.083 24.2455 81.083C23.7232 80.4223 23.1323 80.332 22.5192 80.31C21.8664 80.2858 21.2135 80.2946 20.5606 80.2791C19.6909 80.2593 19.1708 79.8166 19.1885 78.9489C19.2062 78.0789 19.7639 77.656 20.6137 77.6582C22.5724 77.6604 24.531 77.6846 26.4918 77.7023C27.1093 77.7067 27.7267 77.6957 28.342 77.7331C29.1653 77.7838 29.7451 78.1582 29.7517 79.0546C29.7584 79.951 29.1741 80.2769 28.3641 80.4157C27.9635 80.484 27.2221 80.0369 27.2133 80.6932C27.2044 81.4244 28.0012 81.05 28.446 81.1293C29.225 81.2681 29.7318 81.6535 29.7185 82.4794C29.7053 83.2987 29.2095 83.8075 28.4084 83.7348C27.5209 83.6555 27.1624 84.041 26.7972 84.7766C26.2085 85.9637 25.1175 86.6333 23.9179 86.9945V86.9989Z" fill="#E10A0A"/>
<path id="Vector_8" d="M9.68148 80.3563C9.28976 80.3299 8.89804 80.31 8.50853 80.2726C7.75828 80.1999 7.31565 79.7682 7.28467 79.0348C7.25368 78.2397 7.71401 77.7728 8.49746 77.6759C8.95558 77.6186 9.42476 77.6428 9.88952 77.6318C11.9544 77.6627 14.0214 77.6847 16.0863 77.7265C17.2813 77.7508 17.9873 78.2794 17.8944 79.1163C17.7771 80.1647 17.0202 80.4069 16.0907 80.4202C15.8318 80.4246 15.3515 80.1471 15.3183 80.6801C15.2829 81.2329 15.7654 81.1139 16.1084 81.1316C17.4562 81.2064 18.1157 81.9046 17.7727 82.8891C17.5314 83.5807 17.0003 83.7679 16.3209 83.7745C15.9269 83.7789 15.4666 83.5917 15.2276 84.1798C14.6167 85.6819 13.4549 86.5937 11.826 87.054C12.5386 87.761 13.1959 88.4261 13.8665 89.0759C15.6237 90.7828 15.9136 91.4303 15.0749 92.1153C14.2516 92.787 13.8621 92.9059 11.9699 90.9391C11.3192 90.263 10.6021 89.6529 9.91386 89.012C9.30525 88.4129 8.71213 87.7962 8.08582 87.217C7.51041 86.684 6.9859 86.1201 7.32672 85.2788C7.64983 84.4815 8.39123 84.4242 9.13705 84.4397C9.31189 84.4441 9.48894 84.4044 9.66599 84.3868C10.5734 84.5366 11.463 84.6137 12.3837 83.7657H9.67706C9.31632 83.7481 8.95558 83.7459 8.59705 83.7106C7.76049 83.6314 7.23377 83.2041 7.26475 82.3297C7.29352 81.5126 7.7959 81.1183 8.6059 81.0875C8.96443 81.0743 9.32517 81.0479 9.68369 81.028C10.4738 81.0457 11.2661 81.0611 12.0562 81.0787C12.138 81.0567 12.2199 81.0368 12.2996 81.0148C12.2376 80.951 12.1779 80.8893 12.1159 80.8254C11.3989 80.1845 10.5402 80.2704 9.68369 80.3541L9.68148 80.3563Z" fill="#E10A0A"/>
<path id="Vector_9" d="M37.9368 54.8476C33.4774 54.8476 29.0157 54.8454 24.5563 54.852C23.9565 54.852 23.3878 54.8057 22.9916 54.286C22.4472 53.5724 22.7614 52.535 23.6445 52.2751C24.0517 52.154 24.5032 52.1584 24.9347 52.1562C33.6389 52.1496 42.341 52.1518 51.0452 52.1518C51.2621 52.1518 51.4812 52.143 51.698 52.154C52.5523 52.198 53.1897 52.524 53.2428 53.4755C53.2893 54.297 52.6785 54.8366 51.6471 54.841C47.077 54.8564 42.5091 54.8476 37.939 54.8476H37.9368Z" fill="#E10A0A"/>
<path id="Vector_10" d="M37.9942 43.8876C33.4927 43.8876 28.9934 43.8787 24.4919 43.8942C23.6996 43.8964 23.0291 43.7598 22.7768 42.9075C22.5643 42.1895 23.0468 41.4538 23.8346 41.2931C24.1489 41.2292 24.4853 41.249 24.8106 41.249C33.5945 41.249 42.3784 41.2468 51.1623 41.249C51.523 41.249 51.9015 41.2248 52.2423 41.3195C52.9084 41.5045 53.2935 41.9758 53.2293 42.685C53.1674 43.381 52.7557 43.8017 52.0409 43.8677C51.7178 43.8986 51.388 43.8854 51.0627 43.8854C46.7073 43.8854 42.3518 43.8854 37.9964 43.8854L37.9942 43.8876Z" fill="#E10A0A"/>
<path id="Vector_11" d="M45.0679 20.4121C47.2102 20.4121 49.3526 20.4077 51.4949 20.4121C52.659 20.4165 53.2388 20.8636 53.2388 21.7292C53.2388 22.5926 52.6634 23.0353 51.4904 23.0353C47.1328 23.0397 42.7774 23.0397 38.4197 23.0353C37.2423 23.0353 36.6758 22.5948 36.6758 21.7248C36.6758 20.8548 37.2468 20.4165 38.4219 20.4121C40.6373 20.4055 42.8504 20.4121 45.0657 20.4121H45.0679Z" fill="#E10A0A"/>
<path id="Vector_12" d="M44.8506 17.4234C42.6729 17.4234 40.4951 17.4301 38.3174 17.4212C37.233 17.4168 36.6753 16.9609 36.6797 16.124C36.6819 15.287 37.2485 14.8047 38.3152 14.8025C42.7437 14.7937 47.1721 14.7937 51.6006 14.8025C52.6629 14.8025 53.2361 15.287 53.2405 16.1196C53.2449 16.9543 52.685 17.4146 51.605 17.419C49.3543 17.4301 47.1035 17.4212 44.8528 17.4212L44.8506 17.4234Z" fill="#E10A0A"/>
<path id="Vector_13" d="M44.9351 28.6582C42.7928 28.6582 40.6505 28.6626 38.5082 28.6582C37.2666 28.6538 36.6647 28.2045 36.6779 27.3103C36.689 26.4513 37.2578 26.0328 38.4462 26.0306C42.8017 26.0262 47.1593 26.0262 51.5147 26.0306C52.6788 26.0306 53.2542 26.4866 53.2365 27.3543C53.2188 28.2133 52.639 28.6516 51.4683 28.656C49.2905 28.6648 47.1128 28.6582 44.9329 28.6582H44.9351Z" fill="#E10A0A"/>
<path id="Vector_14" d="M44.9593 31.6225C47.137 31.6225 49.3147 31.6137 51.4924 31.6247C52.6654 31.6313 53.2452 32.0806 53.2408 32.9352C53.2364 33.7897 52.6366 34.2632 51.4924 34.2654C47.137 34.272 42.7816 34.272 38.4239 34.2654C37.2775 34.2654 36.6822 33.7919 36.6778 32.9352C36.6733 32.0784 37.2487 31.6313 38.4239 31.6247C40.6016 31.6137 42.7793 31.6225 44.9571 31.6225H44.9593Z" fill="#E10A0A"/>
<path id="Vector_15" d="M30.4843 65.2979C32.4429 65.2979 34.3993 65.2935 36.3579 65.2979C37.584 65.3001 38.2103 65.7626 38.197 66.6348C38.1837 67.4827 37.5972 67.9232 36.4265 67.9232C32.4384 67.9298 28.4504 67.9298 24.4623 67.9232C23.3071 67.9232 22.725 67.4585 22.7405 66.5951C22.756 65.7361 23.3337 65.3023 24.5022 65.2979C26.4962 65.2913 28.4902 65.2979 30.4843 65.2979Z" fill="#E10A0A"/>
<path id="Vector_16" d="M16.8241 54.845C16.2442 54.845 15.6622 54.8626 15.0824 54.8406C14.2458 54.8097 13.6615 54.3979 13.6283 53.5433C13.5951 52.68 14.1639 52.2064 14.996 52.1756C16.2642 52.1293 17.5367 52.1271 18.8048 52.18C19.6325 52.2152 20.1725 52.6756 20.1371 53.5654C20.1039 54.3979 19.5529 54.7789 18.7827 54.834C18.132 54.8802 17.477 54.8428 16.8241 54.845Z" fill="#E10A0A"/>
<path id="Vector_17" d="M16.8239 43.8794C16.1732 43.8794 15.5203 43.9036 14.8719 43.8727C14.0973 43.8353 13.6657 43.353 13.6325 42.6283C13.5993 41.8861 14.0597 41.3377 14.7878 41.2981C16.1931 41.221 17.6095 41.2188 19.0149 41.3047C19.7341 41.3487 20.179 41.8817 20.1347 42.6526C20.0904 43.4102 19.6456 43.8397 18.8865 43.8771C18.2004 43.9102 17.5121 43.8838 16.8261 43.8838L16.8239 43.8794Z" fill="#E10A0A"/>
<path id="Vector_18" d="M16.8922 65.3024C17.5429 65.3024 18.198 65.2694 18.8464 65.3112C19.6454 65.3619 20.1322 65.8046 20.1278 66.6217C20.1234 67.4366 19.6409 67.8947 18.8354 67.9123C17.534 67.9432 16.2305 67.9388 14.9292 67.9123C14.1059 67.8947 13.6345 67.3926 13.6367 66.6107C13.6367 65.8222 14.1347 65.3531 14.9403 65.309C15.5887 65.2738 16.2416 65.3024 16.8944 65.3024H16.8922Z" fill="#E10A0A"/>
<path id="Vector_19" d="M9.83702 43.9344C9.55153 43.9058 9.2594 43.908 8.98054 43.8441C8.33652 43.6965 7.9957 43.2406 7.97357 42.6129C7.95365 42.0271 8.25907 41.5689 8.83005 41.3773C9.16202 41.2672 9.53382 41.2672 9.88571 41.2188C10.6006 41.4192 11.1472 41.8178 11.1295 42.6085C11.1096 43.3904 10.5895 43.8022 9.83702 43.9322V43.9344Z" fill="#E10A0A"/>
<path id="Vector_20" d="M9.88064 54.8805C9.62834 54.8585 9.37162 54.8629 9.12818 54.8101C8.40006 54.6559 7.95522 54.1978 7.97735 53.4555C7.99948 52.7728 8.42219 52.3345 9.11711 52.2089C9.36498 52.1649 9.61728 52.1517 9.86736 52.123C10.5623 52.3301 11.1311 52.6979 11.1333 53.493C11.1377 54.2881 10.5711 54.6625 9.87843 54.8805H9.88064Z" fill="#E10A0A"/>
<path id="Vector_21" d="M9.89394 67.9561C9.60845 67.9384 9.31632 67.9539 9.03968 67.8966C8.34918 67.7578 7.97517 67.2821 7.97074 66.6148C7.96631 65.9408 8.36246 65.4783 9.03525 65.3219C9.30968 65.258 9.60403 65.2823 9.88952 65.2646C10.6508 65.4298 11.1599 65.8703 11.1311 66.6676C11.1045 67.401 10.6243 67.8305 9.89173 67.9561H9.89394Z" fill="#E10A0A"/>
<path id="Vector_22" d="M56.0313 91.0916C55.5488 91.1004 55.208 90.8449 54.9158 90.5057C53.2184 88.5323 51.5231 86.5589 49.8301 84.5833C49.248 83.9027 49.175 83.1958 49.8854 82.5857C50.6268 81.9514 51.304 82.2487 51.8662 82.8962C53.0989 84.3146 54.3449 85.7242 55.5311 87.18C56.0135 87.7747 56.3101 87.8804 56.9652 87.3364C60.3623 84.5194 63.8148 81.7708 67.2363 78.9824C67.8228 78.5045 68.4247 78.2534 69.1175 78.6521C69.9673 79.141 69.9651 80.1563 69.0621 80.9052C66.8069 82.7773 64.523 84.6119 62.2457 86.4554C60.5593 87.8209 58.8663 89.1799 57.1799 90.5432C56.839 90.8185 56.496 91.0806 56.029 91.0872L56.0313 91.0916Z" fill="#1CB65D"/>
<path id="Vector_23" d="M12.0547 81.0812C12.0746 80.9975 12.0945 80.9138 12.1144 80.8301C12.1764 80.8917 12.2362 80.9556 12.2981 81.0195C12.2162 81.0415 12.1344 81.0613 12.0547 81.0834V81.0812Z" fill="#FCD6D6"/>
</g>
<defs>
<clipPath id="clip0_22149_63338">
<rect width="80" height="111" fill="white" transform="translate(0.5 0.695312)"/>
</clipPath>
</defs>
</svg>
