<svg width="121" height="126" viewBox="0 0 121 126" fill="none" xmlns="http://www.w3.org/2000/svg">
<g id="Layer_1" clip-path="url(#clip0_22149_63365)">
<path id="Vector" d="M43.7135 101.708C31.7536 101.708 19.7938 101.703 7.83657 101.7C3.08892 101.7 0.502592 99.1287 0.502592 94.3859C0.5 65.8391 0.5 37.2948 0.5 8.74792C0.5 4.00001 1.52365 2.43802 5.77114 0.695312H53.0637C53.2191 1.09291 53.6234 0.948328 53.9033 1.05418C56.4456 2.00428 58.1897 4.29433 58.1949 6.99488C58.2156 17.5415 58.1923 28.0907 58.1845 38.6373C57.1505 38.5134 56.1294 38.1829 55.0721 38.4488C55.0721 30.7706 55.041 23.0898 55.098 15.4115C55.1058 14.2962 54.7818 14.1026 53.7426 14.1077C46.3205 14.1542 38.8984 14.1284 31.4764 14.1335C23.9739 14.1387 16.4689 14.1542 8.96647 14.1671C7.66035 14.1542 6.34904 14.2213 5.05329 14.1077C3.89229 14.007 3.56576 14.3375 3.56835 15.5458C3.60982 37.4626 3.59945 59.3794 3.59945 81.2962C3.59945 81.5002 3.62277 81.7067 3.59686 81.9055C3.50875 82.5665 3.82232 82.7395 4.44169 82.7214C5.94995 82.6775 7.4608 82.6852 8.96906 82.6749C20.5505 82.6852 32.1294 82.6956 43.7109 82.7059C43.7109 83.7515 43.7135 84.7972 43.7161 85.8402C36.6568 85.8402 29.6001 85.8299 22.5408 85.8376C18.0134 85.8428 13.4861 85.866 8.95611 85.8815C7.40897 85.8634 5.86443 85.8557 4.31989 85.8247C3.80936 85.8144 3.59427 85.9951 3.59686 86.527C3.61759 89.4883 3.54244 92.4522 3.6461 95.4109C3.71348 97.2827 5.13622 98.522 7.02543 98.571C8.24344 98.602 9.46663 98.5478 10.6846 98.5297C11.2133 98.5478 11.7446 98.5813 12.2732 98.5813C22.7533 98.5813 33.2308 98.5813 43.7109 98.5813L43.7161 101.71L43.7135 101.708ZM10.6769 3.89673C9.46145 3.8735 8.24862 3.80895 7.0332 3.83477C5.03774 3.87866 3.70052 5.19279 3.60982 7.18594C3.56317 8.19542 3.63314 9.20748 3.58649 10.217C3.55539 10.8856 3.85601 11.0405 4.45465 11.0225C5.95254 10.9812 7.45303 10.9786 8.95351 10.9605C9.44331 10.976 9.93051 11.0044 10.4203 11.0044C24.3005 11.0044 38.178 11.0044 52.0581 11.0044C54.0692 11.0044 55.0721 9.99664 55.0669 7.98113C55.0617 4.92687 53.9474 3.82961 50.8427 3.82961C38.0666 3.82961 25.2878 3.82961 12.5117 3.83219C11.9001 3.83219 11.2911 3.87608 10.6795 3.89673H10.6769Z" fill="#E10A0A"/>
<path id="Vector_2" d="M43.7103 85.84C43.7103 84.7944 43.7077 83.7488 43.7051 82.7057C43.718 75.0585 43.7336 67.4112 43.7388 59.7614C43.744 53.294 43.7362 46.824 43.7439 40.3566C43.7439 38.7766 44.5136 38.1569 46.0867 38.3919C47.1129 38.5442 48.0303 38.965 48.8985 39.5072C50.456 40.5477 51.35 40.4625 53.0838 39.1044C53.7446 38.885 54.408 38.6655 55.0689 38.4487C56.1262 38.1827 57.1473 38.5106 58.1813 38.6371C58.6011 38.8824 59.0494 39.0941 59.4382 39.3807C60.8324 40.4108 62.1515 40.3669 63.6027 39.3988C65.7822 37.9452 68.0809 37.9555 70.2629 39.3988C71.7142 40.3592 72.9866 40.3489 74.4352 39.3884C76.6173 37.9426 78.9211 37.9504 81.098 39.4014C82.5519 40.3695 83.8606 40.4237 85.2548 39.3704C86.0504 38.7688 87.0015 38.4977 87.9837 38.3738C89.3572 38.1982 90.0958 38.8153 90.1035 40.1965C90.1243 43.3696 90.1113 46.5426 90.1113 49.7156C90.1113 61.9998 90.1113 74.2839 90.1113 86.5681C90.1113 87.8814 90.7911 88.538 92.1508 88.538C96.2325 88.538 100.317 88.5251 104.398 88.5406C111.048 88.5664 115.544 93.0355 115.56 99.6397C115.573 105.903 115.56 112.167 115.565 118.433C115.565 121.063 116.459 122.114 119.03 122.548C119.947 122.703 120.549 123.183 120.499 124.174C120.448 125.22 119.802 125.68 118.797 125.68C108.099 125.677 97.4012 125.744 86.706 125.631C81.1939 125.571 76.708 120.872 76.5732 115.376C76.5551 114.604 76.5033 113.824 76.5758 113.06C76.6613 112.164 76.2856 111.996 75.4641 111.999C68.524 112.03 61.5736 111.81 54.6439 112.079C48.87 112.303 43.5936 108.074 43.7154 101.71C43.7154 100.667 43.7129 99.6242 43.7103 98.5812C43.7103 94.3341 43.7103 90.0871 43.7129 85.84H43.7103ZM87.0481 65.3458C87.0481 57.9412 87.0429 50.5392 87.0559 43.1372C87.0559 42.3704 87.0559 41.9547 86.0919 42.4943C83.9927 43.6665 81.834 43.5916 79.8411 42.2568C78.3925 41.2861 77.1252 41.2938 75.6714 42.2491C73.4893 43.6845 71.1829 43.682 69.0034 42.2439C67.547 41.2835 66.2901 41.299 64.8363 42.2568C62.7035 43.6613 60.41 43.6845 58.2694 42.293C56.7741 41.3222 55.4861 41.2577 53.9934 42.2749C52.1327 43.54 50.0569 43.6561 48.0666 42.6312C46.973 42.0683 46.8641 42.2955 46.8667 43.3851C46.8926 61.8113 46.8849 80.2375 46.8849 98.6664C46.8849 99.885 46.8641 101.106 46.8978 102.325C47.0041 106.094 49.9118 108.937 53.6461 108.947C57.3831 108.957 60.327 106.112 60.4359 102.366C60.4722 101.147 60.4488 99.9263 60.4514 98.7051C60.467 92.5682 64.4864 88.5561 70.6542 88.5406C75.6766 88.5277 80.6989 88.5019 85.7213 88.5664C86.8304 88.5793 87.0766 88.2488 87.0689 87.1929C87.0248 79.9122 87.0455 72.6316 87.0455 65.3483L87.0481 65.3458ZM113.326 122.481C112.3 120.578 112.424 118.58 112.427 116.594C112.427 111.023 112.432 105.451 112.424 99.8798C112.424 99.0278 112.448 98.1758 112.225 97.3367C111.25 93.6654 108.343 91.6026 104.025 91.5974C95.4939 91.5845 86.96 91.5923 78.4288 91.6026C78.0867 91.6026 77.6954 91.4477 77.3326 91.8479C79.4161 94.1947 79.7401 97.045 79.7064 100.042C79.6494 105.005 79.6571 109.967 79.7038 114.926C79.7452 119.377 82.9147 122.514 87.3747 122.527C95.7038 122.553 104.03 122.535 112.359 122.532C112.639 122.532 112.917 122.504 113.329 122.481H113.326ZM60.9801 108.872C66.1554 108.872 71.0352 108.867 75.9176 108.877C76.5033 108.877 76.5629 108.557 76.5603 108.098C76.5499 104.685 76.6432 101.266 76.5214 97.8557C76.4022 94.4916 73.7433 91.8659 70.5506 91.7084C67.0417 91.5355 64.2299 93.7145 63.696 97.1457C63.5094 98.3385 63.5561 99.5803 63.6105 100.794C63.7427 103.703 63.1026 106.355 60.9775 108.867L60.9801 108.872Z" fill="#1CB65D"/>
<path id="Vector_3" d="M8.96712 14.1671C8.95934 27.7396 8.94898 41.3095 8.94898 54.8819C8.94898 64.1454 8.96194 73.4115 8.96712 82.6749C7.45886 82.6878 5.94801 82.6775 4.43975 82.7214C3.82037 82.7395 3.50939 82.5665 3.59491 81.9055C3.62083 81.7067 3.5975 81.5002 3.5975 81.2962C3.5975 59.3794 3.60787 37.4626 3.56641 15.5458C3.56641 14.3401 3.88775 14.007 5.05134 14.1077C6.3471 14.2213 7.6584 14.1542 8.96453 14.1671H8.96712Z" fill="#FCD6D6"/>
<path id="Vector_4" d="M8.95341 85.8791C8.95341 88.5564 9.05189 91.2389 8.90935 93.911C8.81088 95.7828 9.25662 97.3061 10.6819 98.5298C9.46135 98.5453 8.24074 98.6021 7.02273 98.5712C5.13352 98.5221 3.70819 97.2828 3.6434 95.411C3.53715 92.4523 3.61489 89.4884 3.59416 86.5271C3.59157 85.9952 3.80666 85.8119 4.31719 85.8249C5.86173 85.8558 7.40887 85.8662 8.95341 85.8817V85.8791Z" fill="#FCD6D6"/>
<path id="Vector_5" d="M10.6769 3.89706C10.6613 4.17073 10.4695 4.3024 10.2648 4.4444C9.25413 5.14923 8.84208 6.10191 8.9276 7.34633C9.01053 8.54686 8.94833 9.75514 8.95092 10.9608C7.45044 10.9789 5.95254 10.9815 4.45206 11.0228C3.85342 11.0409 3.55539 10.886 3.5839 10.2173C3.63055 9.2078 3.56058 8.19574 3.60722 7.18626C3.70052 5.19312 5.03774 3.87898 7.03061 3.83509C8.24344 3.80928 9.45886 3.87382 10.6743 3.89706H10.6769Z" fill="#FCD6D6"/>
<path id="Vector_6" d="M48.9023 39.5075C50.0918 38.0126 51.2399 37.9016 53.0876 39.1047C51.3539 40.4627 50.4598 40.5479 48.9023 39.5075Z" fill="#FCD6D6"/>
<path id="Vector_7" d="M29.289 93.7331C27.7004 93.7331 26.1144 93.7512 24.5258 93.7254C23.427 93.7073 22.6781 93.0541 22.7532 92.1557C22.8388 91.1462 23.4763 90.6376 24.4714 90.6324C27.7289 90.6195 30.9839 90.6143 34.2414 90.635C35.2158 90.6427 35.887 91.1023 35.9285 92.1582C35.9674 93.1264 35.3298 93.7047 34.1714 93.7228C32.544 93.7486 30.9139 93.728 29.2864 93.728L29.289 93.7331Z" fill="#E10A0A"/>
<path id="Vector_8" d="M70.8368 56.8413C74.058 56.8413 77.2767 56.8362 80.4979 56.8413C81.8611 56.8439 82.5219 57.3629 82.5245 58.393C82.5245 59.4154 81.8481 59.9679 80.5005 59.9705C74.0192 59.9782 67.5378 59.9782 61.0564 59.9705C59.7736 59.9705 58.9962 59.3508 58.9884 58.3904C58.978 57.4274 59.7399 56.8439 61.0538 56.8413C64.3139 56.8336 67.5767 56.8413 70.8368 56.8413Z" fill="#1CB65D"/>
<path id="Vector_9" d="M70.7188 77.3305C67.5001 77.3305 64.2789 77.3357 61.0602 77.3305C59.7826 77.3279 58.9896 76.7187 58.9844 75.7711C58.9792 74.8262 59.7774 74.1962 61.0524 74.1962C67.5312 74.1885 74.0126 74.1885 80.4914 74.1962C81.8415 74.1962 82.5205 74.7436 82.5231 75.7634C82.5231 76.7884 81.8493 77.3254 80.4991 77.3305C77.239 77.3383 73.9789 77.3331 70.7188 77.3331V77.3305Z" fill="#1CB65D"/>
<path id="Vector_10" d="M70.7305 65.5603C73.9958 65.5603 77.2611 65.5551 80.5264 65.5629C81.8921 65.5654 82.5503 66.1025 82.5192 67.1326C82.4881 68.1137 81.8584 68.6042 80.5445 68.6068C74.0139 68.6145 67.4833 68.6145 60.9527 68.6068C59.701 68.6068 58.9935 68.0311 58.9883 67.0887C58.9831 66.1412 59.688 65.568 60.9345 65.5654C64.1998 65.5551 67.4651 65.5603 70.7305 65.5603Z" fill="#1CB65D"/>
<path id="Vector_11" d="M60.0895 51.244C57.8089 51.244 55.5284 51.2518 53.2479 51.2414C51.9754 51.2363 51.3327 50.7044 51.3379 49.7079C51.3405 48.7268 51.9936 48.1355 53.2479 48.1278C57.8504 48.1046 62.4529 48.1071 67.0554 48.1278C68.3901 48.133 69.0535 48.7319 69.0224 49.7672C68.9913 50.7509 68.3616 51.2363 67.058 51.2414C64.736 51.2492 62.414 51.2414 60.0921 51.2414L60.0895 51.244Z" fill="#1CB65D"/>
<path id="Vector_12" d="M54.4767 59.9394C53.8676 59.9394 53.2431 60.022 52.6522 59.9188C51.7918 59.769 51.2917 59.201 51.3435 58.2897C51.3928 57.4299 51.9214 56.9239 52.7377 56.8723C53.9117 56.8 55.0986 56.8 56.2752 56.8671C57.1589 56.9187 57.6953 57.479 57.7083 58.38C57.7212 59.2888 57.1692 59.8155 56.3037 59.9343C55.705 60.0143 55.0857 59.9498 54.4767 59.9498C54.4767 59.9446 54.4767 59.942 54.4767 59.9369V59.9394Z" fill="#1CB65D"/>
<path id="Vector_13" d="M54.5148 77.3255C53.9861 77.3255 53.4548 77.3565 52.9288 77.3203C51.9958 77.2584 51.379 76.7885 51.3453 75.8177C51.3091 74.8418 51.8973 74.2841 52.8225 74.2222C53.9576 74.1473 55.103 74.1421 56.2355 74.2222C57.1607 74.2867 57.7412 74.8624 57.7049 75.8306C57.6712 76.7317 57.0959 77.2248 56.2226 77.3126C55.6576 77.3694 55.0849 77.3229 54.5148 77.3255Z" fill="#1CB65D"/>
<path id="Vector_14" d="M54.5097 68.589C53.9007 68.589 53.2865 68.6406 52.6878 68.576C51.786 68.4779 51.3117 67.9074 51.3454 67.0115C51.3765 66.1672 51.8689 65.6328 52.7137 65.5967C53.9266 65.5424 55.1472 65.5399 56.36 65.6018C57.2048 65.6457 57.6869 66.2008 57.705 67.0399C57.7231 67.9358 57.2359 68.4934 56.3341 68.5812C55.7329 68.6406 55.1187 68.5915 54.5097 68.5915V68.589Z" fill="#1CB65D"/>
<path id="Vector_15" d="M94.2353 102.534C94.2664 103.67 93.8958 104.336 92.9111 104.46C91.947 104.581 91.3665 104.09 91.167 103.151C91.1255 102.952 91.1126 102.748 91.0607 102.552C90.7834 101.493 90.0708 100.99 88.9979 101.047C88.0416 101.096 87.1968 101.953 87.2071 102.892C87.2175 103.956 87.8006 104.646 88.8424 104.883C89.3944 105.01 89.9853 104.981 90.5243 105.136C92.613 105.727 93.8544 107.147 94.1939 109.257C94.536 111.371 93.5201 113.375 91.6516 114.379C91.0659 114.694 90.7472 114.991 90.7005 115.719C90.6461 116.566 90.0526 117.141 89.1378 117.113C88.2412 117.082 87.6555 116.53 87.6503 115.649C87.6451 114.947 87.316 114.699 86.7718 114.402C85.064 113.47 84.1673 112.001 84.1414 110.041C84.1284 109.12 84.6312 108.557 85.5097 108.467C86.3934 108.376 86.9765 108.838 87.1631 109.737C87.2279 110.054 87.2538 110.393 87.3782 110.687C87.7773 111.624 88.5185 112.068 89.524 111.887C90.5321 111.704 91.0918 111.046 91.0996 110.01C91.1048 108.98 90.5632 108.332 89.5577 108.11C89.0834 108.004 88.5858 108.004 88.109 107.901C86.0876 107.467 84.4731 105.797 84.1829 103.868C83.8537 101.656 84.7737 99.6575 86.6733 98.599C87.2305 98.2892 87.6373 98.0491 87.6788 97.2823C87.7229 96.4664 88.3992 95.9914 89.213 95.9991C89.9775 96.0069 90.5943 96.4742 90.6668 97.2358C90.7394 98.0052 91.1488 98.2995 91.7475 98.6506C93.292 99.5517 94.1083 100.954 94.2301 102.544L94.2353 102.534Z" fill="#1CB65D"/>
<path id="Vector_16" d="M102.8 112.019C103.736 112.019 104.674 111.996 105.609 112.027C106.555 112.058 107.169 112.554 107.203 113.517C107.237 114.552 106.594 115.104 105.609 115.128C103.738 115.177 101.862 115.169 99.9908 115.133C99.0138 115.115 98.3374 114.632 98.3478 113.573C98.3581 112.533 98.9853 112.042 99.9934 112.024C100.929 112.006 101.867 112.019 102.803 112.022L102.8 112.019Z" fill="#1CB65D"/>
<path id="Vector_17" d="M102.707 108.106C101.813 108.106 100.916 108.114 100.022 108.106C99.0167 108.096 98.3844 107.628 98.3455 106.588C98.3066 105.591 98.9208 105.041 99.8356 105.01C101.787 104.943 103.744 104.938 105.692 105.01C106.589 105.044 107.242 105.596 107.203 106.585C107.162 107.613 106.517 108.09 105.514 108.106C104.578 108.119 103.643 108.108 102.704 108.108L102.707 108.106Z" fill="#1CB65D"/>
<path id="Vector_18" d="M102.792 101.06C101.813 101.06 100.83 101.088 99.8535 101.052C98.8842 101.016 98.3374 100.476 98.3478 99.5001C98.3582 98.5758 98.9024 98.0517 99.8094 98.0362C101.769 98.0001 103.728 97.9975 105.687 98.0337C106.648 98.0517 107.234 98.6017 107.2 99.5776C107.169 100.538 106.581 101.044 105.609 101.06C104.671 101.072 103.73 101.062 102.792 101.06Z" fill="#1CB65D"/>
</g>
<defs>
<clipPath id="clip0_22149_63365">
<rect width="120" height="125" fill="white" transform="translate(0.5 0.695312)"/>
</clipPath>
</defs>
</svg>
