<svg width="75" height="71" viewBox="0 0 75 71" fill="none" xmlns="http://www.w3.org/2000/svg">
<g id="Logo-Tara-FA 1" clip-path="url(#clip0_22202_69857)">
<path id="Vector" d="M13.0691 43.9274C13.0691 47.3466 10.1426 50.1199 6.53455 50.1199C2.92652 50.1199 1.64359e-05 47.3466 1.64359e-05 43.9274V7.67514C-0.0080014 4.25585 2.91849 1.48242 6.52653 1.48242C10.1346 1.48242 13.0611 4.25585 13.0611 7.67514V43.9274H13.0691Z" fill="#312782"/>
<path id="Vector_2" d="M26.6335 28.5837C23.0496 28.5837 20.1311 31.3495 20.1311 34.7461V43.6134C20.1311 50.6268 14.4865 56.4168 7.28652 56.7891C7.05399 56.8044 6.82949 56.8044 6.59697 56.8044C3.01299 56.8044 0.102539 59.5626 0.102539 62.9667C0.102539 66.3708 3.00498 69.1213 6.59697 69.129C7.35866 69.129 8.1364 69.0985 8.8981 69.0303C22.4803 67.8904 33.112 56.6752 33.112 43.4995V34.7385C33.112 31.342 30.1935 28.5762 26.6096 28.5762L26.6335 28.5837Z" fill="#312782"/>
<path id="Vector_3" d="M66.2837 12.7958H60.8957C58.322 12.7958 56.2292 10.8126 56.2292 8.37348L56.2453 8.65461H56.2292V8.37348V6.19272C56.2292 2.77342 53.3029 0 49.6948 0C46.0868 0 43.1602 2.77342 43.1602 6.19272V9.7184C43.1602 9.73359 43.1602 9.75639 43.1602 9.77159V9.93116C43.2805 18.3046 50.4164 25.0672 59.252 25.1736H66.2756C69.8837 25.1736 72.8102 22.4002 72.8102 18.9809C72.8102 15.5616 69.8837 12.7882 66.2756 12.7882L66.2837 12.7958Z" fill="url(#paint0_linear_22202_69857)"/>
<path id="Vector_4" d="M61.9297 34.7864C61.9297 31.3671 64.856 28.5936 68.4641 28.5936C72.0721 28.5936 74.9987 31.3671 74.9987 34.7864V40.3864C74.9987 44.9074 73.0504 49.0107 69.9154 51.9893C66.7804 54.9602 62.4427 56.8067 57.6802 56.8067C52.9175 56.8067 48.58 54.9602 45.4369 51.9893C42.3019 49.0182 40.3535 44.9074 40.3535 40.3864V7.67514C40.3535 4.25585 43.2802 1.48242 46.8881 1.48242C50.4962 1.48242 53.4227 4.25585 53.4227 7.67514V40.3864C53.4227 41.4882 53.9038 42.4987 54.6815 43.2282C55.4591 43.9653 56.5175 44.4212 57.6802 44.4212C58.8427 44.4212 59.909 43.9653 60.6788 43.2282C61.4566 42.4911 61.9376 41.4882 61.9376 40.3864V34.7864H61.9297Z" fill="url(#paint1_linear_22202_69857)"/>
<g id="Mask group">
<mask id="mask0_22202_69857" style="mask-type:luminance" maskUnits="userSpaceOnUse" x="40" y="1" width="35" height="56">
<g id="Group">
<path id="Vector_5" d="M61.9297 34.7864C61.9297 31.3671 64.856 28.5936 68.4641 28.5936C72.0721 28.5936 74.9987 31.3671 74.9987 34.7864V40.3864C74.9987 44.9074 73.0504 49.0106 69.9154 51.9893C66.7804 54.9602 62.4427 56.8067 57.6802 56.8067C52.9175 56.8067 48.58 54.9602 45.4369 51.9893C42.3019 49.0182 40.3535 44.9074 40.3535 40.3864V7.67514C40.3535 4.25585 43.2802 1.48242 46.8881 1.48242C50.4962 1.48242 53.4227 4.25585 53.4227 7.67514V40.3864C53.4227 41.4882 53.9038 42.4987 54.6815 43.2282C55.4591 43.9653 56.5175 44.4212 57.6802 44.4212C58.8427 44.4212 59.909 43.9653 60.6788 43.2282C61.4566 42.4911 61.9376 41.4882 61.9376 40.3864V34.7864H61.9297Z" fill="white"/>
</g>
</mask>
<g mask="url(#mask0_22202_69857)">
<g id="Group_2">
<path id="Vector_6" d="M66.2837 12.7958H60.8957C58.322 12.7958 56.2292 10.8126 56.2292 8.37348L56.2453 8.65461H56.2292V8.37348V6.19272C56.2292 2.77342 53.3029 0 49.6948 0C46.0868 0 43.1602 2.77342 43.1602 6.19272V9.7184C43.1602 9.73359 43.1602 9.75639 43.1602 9.77159V9.93116C43.2805 18.3046 50.4164 25.0672 59.252 25.1736H66.2756C69.8837 25.1736 72.8102 22.4002 72.8102 18.9809C72.8102 15.5616 69.8837 12.7882 66.2756 12.7882L66.2837 12.7958Z" fill="url(#paint2_linear_22202_69857)"/>
</g>
</g>
</g>
</g>
<defs>
<linearGradient id="paint0_linear_22202_69857" x1="76.5706" y1="22.2862" x2="46.3321" y2="8.10141" gradientUnits="userSpaceOnUse">
<stop offset="0.13" stop-color="#312782"/>
<stop offset="0.71" stop-color="#E5007E"/>
</linearGradient>
<linearGradient id="paint1_linear_22202_69857" x1="64.2628" y1="56.7306" x2="46.6637" y2="2.33999" gradientUnits="userSpaceOnUse">
<stop offset="0.23" stop-color="#312782"/>
<stop offset="0.81" stop-color="#E5007E"/>
</linearGradient>
<linearGradient id="paint2_linear_22202_69857" x1="38.6623" y1="21.8758" x2="60.0158" y2="10.4568" gradientUnits="userSpaceOnUse">
<stop stop-color="#312782"/>
<stop offset="0.29" stop-color="#761780"/>
<stop offset="0.53" stop-color="#AA0C7F"/>
<stop offset="0.64" stop-color="#BE087F"/>
</linearGradient>
<clipPath id="clip0_22202_69857">
<rect width="75" height="70.5" fill="white"/>
</clipPath>
</defs>
</svg>
