<svg xmlns:xlink="http://www.w3.org/1999/xlink" xmlns="http://www.w3.org/2000/svg" width="37" height="34" viewBox="0 0 37 34" fill="none">
<g id="Layer_1" clip-path="url(#clip0_22149_63060)">
<path id="Vector" d="M6.51513 21.6854C5.77367 21.0705 5.41403 20.3305 5.41907 19.4138C5.42108 19.024 5.41202 18.6333 5.39288 18.2436C5.35661 17.4874 4.99898 16.9028 4.39856 16.4636C3.92206 16.1153 3.43246 15.7832 2.95495 15.4369C1.91833 14.6847 1.39548 13.6599 1.34511 12.3828C1.32799 11.9476 1.44686 11.567 1.72591 11.2298C2.10974 10.7643 2.47643 10.2838 2.86529 9.82237C3.12923 9.50939 3.09196 9.23376 2.82197 8.96117C2.70713 8.84506 2.60034 8.71381 2.46636 8.62496C1.86393 8.22112 1.5879 7.64765 1.42671 6.949C1.22423 6.06962 0.909914 5.21649 0.647988 4.35024C0.307485 3.22451 0.25107 2.07153 0.380018 0.913493C0.406211 0.676232 0.599633 0.457145 0.716492 0.22998C0.902862 0.36325 1.12751 0.465222 1.27057 0.634838C1.79341 1.25878 2.35252 1.83427 3.13225 2.12403C3.45865 2.24619 3.80117 2.36028 4.1447 2.39763C4.96372 2.48648 5.64372 2.20883 6.15145 1.53037C6.56147 0.983156 6.81533 0.972051 7.24247 1.50917C7.45806 1.77975 7.6263 2.0998 7.76129 2.41984C7.91643 2.78937 8.04135 3.17706 8.12396 3.56879C8.28716 4.34519 8.69113 4.9651 9.29154 5.45476C9.97255 6.01005 10.6455 6.58553 11.3809 7.06005C11.7859 7.32155 12.3087 7.51539 12.7832 7.5265C13.7574 7.54972 14.7386 7.46188 15.7097 7.35789C16.4492 7.27914 17.0929 6.92376 17.6651 6.44823C17.7326 6.39169 17.8082 6.34323 17.8666 6.27861C19.2004 4.81769 20.9523 4.43908 22.816 4.36942C23.0557 4.36033 23.3026 4.45322 23.5413 4.51379C23.636 4.53803 23.7277 4.59255 23.8093 4.65009C24.5578 5.17207 25.3728 5.48505 26.2966 5.50726C26.76 5.51837 27.1317 5.73644 27.4178 6.11202C27.8852 6.72587 28.4957 7.08731 29.2614 7.25289C30.4159 7.50328 31.0354 8.43112 30.7987 9.58208C30.6425 10.3403 30.3564 11.0713 30.1338 11.8164C30.0119 12.2253 29.9041 12.6382 29.7832 13.0461C29.6986 13.3318 29.7741 13.5701 29.9837 13.7659C30.2658 14.0295 30.3615 14.3374 30.2879 14.72C30.1983 15.1875 30.299 15.6257 30.4451 16.083C30.6063 16.5868 30.6667 17.135 30.6899 17.6671C30.7282 18.5414 30.8591 18.7323 31.7285 18.8958C32.6724 19.0735 32.9394 19.6288 32.4548 20.4658C32.2292 20.8565 31.9491 21.2159 31.6852 21.5834C31.4384 21.9277 31.4132 22.2518 31.654 22.6254C32.069 23.2695 32.4488 23.9368 32.8407 24.5961C33.1026 25.0373 33.4633 25.3362 33.97 25.4705C34.3327 25.5664 34.6863 25.7017 35.0338 25.844C35.4579 26.0177 35.6836 26.3418 35.6856 26.8102C35.6856 26.999 35.6886 27.1878 35.6977 27.3766C35.7148 27.7492 35.8548 28.047 36.1762 28.2681C36.5963 28.5569 36.6023 28.8002 36.1621 29.0627C35.6786 29.3504 35.1668 29.5968 34.65 29.8229C33.8481 30.1733 33.5015 30.7982 33.4844 31.6392C33.4743 32.139 33.4824 32.6398 33.4824 33.1718C33.1812 33.1718 32.8951 33.1829 32.611 33.1698C30.3403 33.0678 28.0726 32.9669 25.8332 32.5025C24.6172 32.2501 23.8163 31.6756 23.6834 30.3651C23.6612 30.145 23.5735 29.9259 23.4879 29.7179C23.1525 28.9092 22.3435 28.5922 21.5688 29.0041C21.1971 29.202 20.8203 29.4504 20.5473 29.7644C19.6376 30.8093 18.605 30.9295 17.4112 30.3308C16.8179 30.0329 16.1752 29.8239 15.604 29.4918C15.1244 29.2121 14.6731 28.8517 14.2842 28.4539C13.7523 27.9097 13.2204 27.3897 12.5082 27.0859C11.8232 26.7931 11.397 26.2358 11.0948 25.5815C10.7996 24.9424 10.5387 24.2882 10.2496 23.6471C9.77006 22.584 8.95104 21.9095 7.8439 21.5764C7.38855 21.4391 6.93622 21.3613 6.51412 21.6864L6.51513 21.6854Z" fill="#B8B8B8"/>
<circle id="Ellipse 25" cx="17.7651" cy="16.7035" r="4.84513" fill="white"/>
<circle id="Ellipse 26" cx="17.766" cy="16.7035" r="3.5531" fill="#E10A0A"/>
</g>
<defs>
<clipPath id="clip0_22149_63060">
<rect width="36.177" height="32.9469" fill="white" transform="translate(0 0.22998)"/>
</clipPath>
</defs>
</svg>