<svg xmlns:xlink="http://www.w3.org/1999/xlink" xmlns="http://www.w3.org/2000/svg" width="28" height="33" viewBox="0 0 28 33" fill="none">
<g id="verified" clip-path="url(#clip0_22149_63076)">
<path id="Vector" d="M19.2341 14.5388L13.1298 20.6589C12.4071 21.3835 11.2361 21.3835 10.5133 20.6589L7.89751 18.0363C7.17479 17.3117 7.17479 16.137 7.89751 15.413C8.61961 14.6884 9.79125 14.6884 10.5133 15.413L11.8219 16.7243L16.6182 11.9155C17.3403 11.1909 18.512 11.1909 19.2341 11.9155C19.9568 12.6401 19.9568 13.8142 19.2341 14.5388Z" fill="#E10A0A"/>
<path id="Vector_2" d="M24.5471 3.35094L17.1806 1.01825C14.828 0.273865 12.3047 0.273865 9.95217 1.01825L2.58563 3.35094C1.04646 3.83813 0 5.27002 0 6.888V19.7101C0 22.0675 1.11738 24.2846 3.0105 25.6831L10.2272 31.0143C12.2128 32.4815 14.9199 32.4815 16.9055 31.0143L24.1222 25.6831C26.0154 24.2846 27.1327 22.0675 27.1327 19.7101V6.888C27.1327 5.27002 26.0863 3.83813 24.5471 3.35094ZM21.01 13.227C21.01 14.053 20.6893 14.8289 20.1072 15.4132L14.0023 21.5333C13.4202 22.1176 12.6457 22.4391 11.8225 22.4391C10.9992 22.4391 10.2241 22.1176 9.64199 21.5333L7.02553 18.9107C6.44341 18.3264 6.12275 17.5505 6.12275 16.7245C6.12275 15.8985 6.44341 15.1226 7.02553 14.539C7.60827 13.9547 8.38217 13.6332 9.20602 13.6332C10.0299 13.6332 10.8038 13.9547 11.3859 14.539L11.8219 14.9761L15.7462 11.0415C16.329 10.4572 17.1029 10.1357 17.9267 10.1357C18.7506 10.1357 19.5245 10.4572 20.1066 11.0415C20.6893 11.6251 21.01 12.4016 21.01 13.227Z" fill="#B8B8B8"/>
<path id="Vector_3" d="M20.1069 11.0415C19.5248 10.4572 18.7509 10.1357 17.927 10.1357C17.1032 10.1357 16.3293 10.4572 15.7465 11.0415L11.8222 14.9761L11.3862 14.539C10.8041 13.9547 10.0302 13.6332 9.20631 13.6332C8.38246 13.6332 7.60856 13.9547 7.02583 14.539C6.44371 15.1226 6.12305 15.8992 6.12305 16.7245C6.12305 17.5499 6.44371 18.3264 7.02583 18.9107L9.64229 21.5333C10.2244 22.1176 10.9989 22.4391 11.8228 22.4391C12.6466 22.4391 13.4205 22.1176 14.0026 21.5333L20.1075 15.4132C20.6896 14.8289 21.0103 14.053 21.0103 13.227C21.0103 12.401 20.6896 11.6251 20.1069 11.0415ZM19.2349 14.539L13.1307 20.6591C12.408 21.3837 11.237 21.3837 10.5142 20.6591L7.89839 18.0365C7.17567 17.3119 7.17567 16.1372 7.89839 15.4132C8.62049 14.6886 9.79213 14.6886 10.5142 15.4132L11.8228 16.7245L16.6191 11.9157C17.3412 11.1911 18.5128 11.1911 19.2349 11.9157C19.9577 12.6403 19.9577 13.8144 19.2349 14.539Z" fill="white"/>
</g>
<defs>
<clipPath id="clip0_22149_63076">
<rect width="27.1327" height="31.6549" fill="white" transform="translate(0 0.459961)"/>
</clipPath>
</defs>
</svg>