<svg xmlns:xlink="http://www.w3.org/1999/xlink" xmlns="http://www.w3.org/2000/svg" width="33" height="33" viewBox="0 0 33 33" fill="none">
<g id="Group 481543">
<path id="Vector" d="M29.3339 28.9118L21.0938 32.0163C19.6107 32.5064 18.1274 32.3431 16.9738 31.5261C16.4794 31.1993 16.1498 30.8725 15.8202 30.5457H9.55778C7.08578 30.5457 4.94336 28.4216 4.94336 25.9707V24.3368C4.94336 23.6832 5.43777 23.0296 6.26177 23.0296C7.08578 23.0296 7.58018 23.6832 7.58018 24.3368V25.9707C7.58018 27.1144 8.56897 27.9314 9.55778 27.9314H14.9962V4.23932H9.55778C8.40417 4.23932 7.58018 5.21965 7.58018 6.20014V7.83392C7.58018 8.48753 7.08578 9.14114 6.26177 9.14114C5.43777 9.14114 4.94336 8.65097 4.94336 7.99736V6.36342C4.94336 3.91259 6.92098 1.78849 9.55778 1.78849H15.8202C16.1498 1.4616 16.4794 0.971436 16.8091 0.807993C17.6331 0.317827 18.457 -0.00889587 19.4458 -0.00889587C19.9401 -0.00889587 20.5994 0.154545 21.0938 0.317825L29.3339 3.42243C31.1466 4.07587 32.3002 5.70981 32.3002 7.67064V24.8269C32.3002 26.6243 30.9819 28.4216 29.3339 28.9118Z" fill="#B8B8B8"/>
<path id="Vector_2" d="M7.08643 13.7161C6.59201 13.226 6.59201 12.4089 7.08643 11.9187C7.25123 11.7553 7.58082 11.592 7.91042 11.592C8.24002 11.592 8.56962 11.7553 8.73442 11.9187L12.0304 15.1866C12.1952 15.3501 12.1952 15.5134 12.36 15.5134C12.36 15.6768 12.5248 15.8402 12.5248 16.0035C12.5248 16.167 12.5248 16.3304 12.36 16.4937C12.36 16.6571 12.1952 16.8206 12.0304 16.8206L8.73442 20.0884C8.24002 20.5786 7.41602 20.5786 6.92161 20.0884C6.42721 19.5982 6.42721 18.7812 6.92161 18.2911L8.07522 17.1473H1.31841C0.659196 17.1473 0 16.6571 0 15.8402C0 15.0232 0.494397 14.533 1.31841 14.533H8.24002L7.08643 13.7161Z" fill="#E10A0A"/>
</g>
</svg>