<svg xmlns:xlink="http://www.w3.org/1999/xlink" xmlns="http://www.w3.org/2000/svg" width="35" height="34" viewBox="0 0 35 34" fill="none">
<g id="Layer_1" clip-path="url(#clip0_22149_63069)">
<path id="Vector" d="M33.1444 12.2027C32.5412 11.634 31.937 11.0662 31.3234 10.5079C30.724 9.96377 30.3524 9.29947 30.177 8.51403C29.995 7.69737 29.8006 6.88355 29.6034 6.06972C29.2146 4.46384 27.9587 3.37937 26.3425 3.26298C25.4887 3.20147 24.6349 3.14374 23.7792 3.12103C22.9149 3.09737 22.1554 2.82862 21.4741 2.30626C20.8347 1.81608 20.1839 1.34008 19.535 0.861253C18.0694 -0.218482 16.4504 -0.215643 14.9915 0.866931C14.3159 1.36847 13.6393 1.86907 12.9666 2.3744C12.4024 2.7974 11.7716 3.05384 11.0665 3.10211C10.1888 3.16172 9.3112 3.21661 8.43166 3.24878C6.66497 3.31503 5.33948 4.37489 4.92782 6.07729C4.73438 6.87976 4.53618 7.68128 4.36179 8.48753C4.18551 9.29947 3.79863 9.97891 3.17924 10.5391C2.57319 11.087 1.97857 11.6482 1.383 12.2075C0.0718022 13.4396 -0.208353 15.018 0.59876 16.6229C0.969442 17.362 1.33822 18.1011 1.7251 18.8316C2.12151 19.5811 2.22156 20.3665 2.10817 21.1993C1.97857 22.1456 1.87947 23.0957 1.77274 24.0003C1.83373 25.6128 2.56556 26.7342 4.00636 27.3796C4.77345 27.724 5.54912 28.0524 6.32955 28.3675C7.10522 28.6808 7.7065 29.1833 8.15437 29.8845C8.63845 30.6415 9.11585 31.4052 9.64567 32.1291C10.53 33.3356 11.7449 33.8637 13.2248 33.5637C14.1977 33.3659 15.143 33.0328 16.0959 32.7442C16.8449 32.5171 17.5882 32.4906 18.34 32.7177C19.1462 32.9609 19.9533 33.1975 20.7594 33.4416C22.5023 33.9697 24.0355 33.4284 25.038 31.9247C25.4897 31.2453 25.9442 30.5677 26.3825 29.8797C26.8228 29.188 27.4145 28.6921 28.1769 28.3798C29.0212 28.0335 29.8664 27.6852 30.6926 27.3001C32.1086 26.6396 32.8938 25.2267 32.728 23.6862C32.6555 23.0181 32.5917 22.3462 32.4754 21.6847C32.2687 20.5122 32.4049 19.4174 33.03 18.3802C33.3645 17.8247 33.6294 17.2286 33.922 16.6494C34.7424 15.0218 34.4689 13.4528 33.1444 12.2027ZM23.0302 22.578C21.4941 24.1025 19.4473 24.9457 17.2661 24.9504H17.2451C15.0811 24.9504 13.039 24.1044 11.4962 22.5676C9.95346 21.0318 9.10632 19.0019 9.11204 16.8519C9.11776 14.6858 9.9668 12.6532 11.5019 11.1287C13.038 9.60418 15.0849 8.76102 17.267 8.75534H17.2889C19.453 8.75534 21.4941 9.60134 23.0378 11.1381C24.5806 12.6749 25.4268 14.7038 25.4211 16.8529C25.4144 19.0199 24.5654 21.0535 23.0302 22.578Z" fill="#B8B8B8"/>
<path id="Vector_2" d="M17.1274 10.4722C13.5912 10.458 10.7077 13.3149 10.6934 16.8456C10.6801 20.3564 13.5569 23.2199 17.1112 23.2341C20.6465 23.2483 23.5348 20.3876 23.5443 16.8607C23.5548 13.3462 20.6827 10.4864 17.1274 10.4722ZM20.7533 15.6135C19.4935 16.8882 18.228 18.1572 16.9578 19.4224C16.5614 19.8179 15.9935 19.8179 15.5942 19.4271C14.8862 18.7344 14.1839 18.037 13.4864 17.3339C13.0947 16.9383 13.1033 16.3554 13.4892 15.9797C13.8628 15.6163 14.4498 15.6182 14.8395 15.9986C15.316 16.4623 15.781 16.9374 16.2203 17.3765C17.0989 16.5276 17.9574 15.6996 18.8131 14.8697C19.0104 14.6786 19.1972 14.476 19.3963 14.2868C19.8013 13.9007 20.3854 13.8978 20.7618 14.2735C21.1335 14.6454 21.1411 15.2217 20.7533 15.6135Z" fill="#E10A0A"/>
</g>
<defs>
<clipPath id="clip0_22149_63069">
<rect width="34.2389" height="33.5929" fill="white" transform="translate(0 0.0532227)"/>
</clipPath>
</defs>
</svg>